<svg width="97" height="99" viewBox="0 0 97 99" fill="none" xmlns="http://www.w3.org/2000/svg">
<g clip-path="url(#clip0_1543_11146)">
<path d="M44.5477 8.64498L44.2075 9.04948C43.9705 9.32653 43.7252 9.57865 43.4882 9.85293C40.9817 12.5958 46.4659 15.7237 48.5625 12.8894C48.7075 12.6983 48.9417 12.5847 49.1787 12.6456C49.3013 12.6678 49.3933 12.7481 49.4324 12.9199L49.4435 12.931L49.7391 13.9422L49.7586 13.981L49.7892 14.1334V14.1445C49.8506 14.4298 49.9063 14.7263 49.9008 15.0089C49.8813 15.9453 49.898 16.0284 49.5495 16.9206L49.4658 17.084C49.1898 17.6243 48.7381 18.0592 48.1917 18.3224L47.8041 18.1922L47.7316 18.1701H47.7205C47.2298 18.0177 46.7279 17.9041 46.2261 17.8404C45.7131 17.7794 45.2029 17.7573 44.6982 17.7877C44.3107 17.8043 43.9203 17.8459 43.5412 17.9263L43.4743 21.3368L49.1285 21.2398L48.2224 23.0074C49.3181 22.7248 50.1824 22.3314 50.8682 21.8632C51.3812 21.5058 51.7939 21.1234 52.1424 20.7245C52.2651 20.5721 52.3766 20.4197 52.4797 20.2674C52.7781 19.8407 53.0039 19.3919 53.1823 18.9541C53.3552 18.5191 53.4695 18.0814 53.5532 17.6741C53.6981 16.9012 53.6452 17.1616 53.832 16.4856C54.437 16.8735 54.752 17.4525 55.0057 18.1562C55.4546 19.3891 55.6024 21.0099 56.8319 21.5113C55.7669 21.3866 54.7855 20.7134 54.2948 19.7742C53.16 22.9769 50.4751 23.9466 47.2159 24.4204L46.0672 24.5894L47.1155 22.5364L43.399 22.4561L41.8906 25.1906C42.1694 25.2959 42.4538 25.4067 42.7466 25.5203C43.031 25.6311 43.3237 25.7447 43.6192 25.861C44.7289 26.296 45.9194 26.7726 47.1573 27.2851L47.3748 27.371H47.3804C47.4974 27.2934 47.6173 27.2214 47.7428 27.1577C48.1499 26.9443 48.6015 26.7947 49.0839 26.7199C51.4398 26.3487 53.6563 27.9306 54.0578 30.2607L54.2697 30.3576C55.4267 30.884 56.5866 31.4298 57.7297 31.9867C58.6247 32.4217 59.5113 32.8649 60.3839 33.3165C61.1479 31.923 62.5336 29.593 63.1051 28.2299C64.382 25.185 63.9053 24.7528 62.9099 22.4561C62.6953 21.9629 62.2018 21.3395 62.0679 21.1262C64.2287 22.1984 65.0066 22.7387 65.1543 24.9689L67.9452 14.2165C68.3801 12.1691 67.3486 10.0607 65.2798 9.71994C64.7278 9.62575 63.5484 9.69501 63.0689 9.67285C62.843 9.66453 62.8124 9.35701 63.0187 9.29605C63.8997 9.04393 65.5921 8.83337 66.4006 8.43996C67.3848 7.95235 68.1348 7.04915 68.7621 6.11271C69.0186 5.72484 68.7231 5.22615 68.2631 5.25662C64.9508 5.45056 65.1822 3.81595 65.843 2.55535C66.066 2.11761 65.606 1.64662 65.146 1.81839C60.6237 3.53058 59.7957 2.69388 59.7957 2.69388C59.6312 2.49717 59.5503 2.25337 59.5392 2.00956L59.4109 0.563344C59.3914 0.369406 59.1851 0.258585 59.0094 0.338931L54.6851 2.4473L54.0578 2.60799L48.4092 3.84642C48.2865 3.8769 48.1638 3.88798 48.03 3.90737C47.2214 3.9988 46.4826 4.41438 45.9556 5.04329C45.3116 5.6445 44.2354 5.73038 43.1508 6.21522C42.8525 6.34821 42.543 6.50059 42.5626 6.82474V6.8663C42.8665 8.57849 44.4835 8.67545 44.5477 8.64498ZM50.9268 5.93263L51.016 5.86891C51.6071 5.49212 52.5188 5.48103 53.1656 5.73592C54.3087 6.25124 52.8812 7.26248 52.0002 7.53954C51.0188 7.86646 49.9259 6.68067 50.9268 5.93263Z" fill="white"/>
<path d="M63.8631 37.4793L63.8408 37.4626L64.0973 37.1634L66.4588 34.4261L64.128 32.8802L61.8696 36.2658C59.9542 35.1105 57.8074 33.9773 55.6048 32.9023C54.6848 32.4535 53.7563 32.0185 52.8251 31.5947L52.655 31.5171C52.3344 29.6442 50.5556 28.3753 48.6625 28.6745C48.1551 28.7521 47.695 28.935 47.2963 29.1954H47.2908L47.1179 29.1261C46.1254 28.7161 45.169 28.3337 44.2797 27.9847C42.7992 27.4028 41.486 26.9069 40.4321 26.5163C39.6905 26.242 39.0743 26.0176 38.6171 25.8569L40.1254 22.0003L37.4628 21.2578L36.5288 24.5824L36.2862 25.4496L34.75 31.0073C44.2378 32.3482 52.839 36.3406 59.7897 42.1919L63.8659 37.4765L63.8631 37.4793Z" fill="white"/>
<path d="M16.1638 24.2762C17.1703 24.5449 17.6693 27.5426 17.6693 27.5426L17.6888 27.598C17.9091 28.2519 18.0736 28.9223 18.1684 29.6039V29.6122C18.2046 29.9308 18.2409 30.2134 18.2688 30.4434C18.4556 31.7483 18.7065 33.0781 19.0801 34.2861C19.4537 35.5051 19.9472 36.605 20.6052 37.4584C21.0345 38.0346 21.5392 38.5001 22.1247 38.8519C22.9165 39.3285 23.8533 39.6 25.0828 39.5944C25.1999 39.5889 25.3254 39.5861 25.4508 39.5806C27.0317 39.4864 30.6868 39.431 30.7147 37.1896C30.7259 36.0731 29.3792 34.987 28.646 34.2722L28.6376 34.2528L28.5345 34.1614C28.4313 34.0617 28.3198 33.9509 28.2194 33.84C27.712 33.2998 27.2742 32.6847 26.9452 32.0253C26.7501 31.6125 26.6023 31.2413 26.5103 30.8894C26.4183 30.5376 26.3737 30.2273 26.3681 29.9308V29.9114C26.3681 29.6704 26.3988 29.4432 26.449 29.2327C25.9666 28.9334 25.3003 28.4818 24.3914 27.7698C23.8198 27.321 23.357 26.8029 22.9945 26.246C22.6293 25.7002 22.4341 25.1101 22.2278 24.5421C21.9685 23.3647 21.5392 21.5417 22.4007 20.5553C23.1507 19.7436 24.4666 18.749 25.1023 17.6879C25.6711 16.7985 25.8607 15.5047 25.7241 14.5572C25.4759 12.4931 24.5837 14.197 23.7919 14.9423C23.1339 15.6016 22.1358 16.1336 21.2492 15.6764C20.0643 15.0254 20.3487 12.8976 19.1888 11.1439C18.4695 10.0329 17.2065 8.73073 15.9017 8.53125C15.5838 8.53679 15.556 8.81939 15.7232 9.34302C16.0327 10.2878 16.6461 11.673 16.8078 12.7757C16.9528 13.7066 16.911 15.114 15.9073 15.4742C15.0764 15.6543 13.8775 14.668 11.9761 14.1277C11.3989 13.8313 7.56811 13.2716 9.07089 14.4823C12.832 16.5215 16.2613 21.5971 9.21308 22.733C8.15082 22.8549 7.88595 23.1098 8.51885 23.7636C10.6406 25.6697 14.1312 24.0462 16.1693 24.2734L16.1638 24.2762Z" fill="white"/>
<path d="M74.0588 76.9576C74.0588 76.9438 74.0588 76.9299 74.0588 76.9216C74.0588 76.9078 74.0588 76.8967 74.0588 76.8828C73.925 73.8352 73.1108 70.9677 71.7224 68.1363C69.9771 64.5955 67.8302 61.2404 65.9148 57.6637C65.7224 57.3063 65.5329 56.9516 65.3461 56.5748V56.5638L64.2476 54.0592L63.2411 54.2227C62.1788 54.3972 61.1138 54.4305 60.0599 54.3335C55.6268 53.9345 52.3731 51.4494 51.0404 47.2797C50.5051 47.8504 50.0897 48.4904 49.6241 49.1138C49.5126 49.2745 49.4038 49.4213 49.3174 49.5654C49.139 49.8785 48.9717 50.1832 48.8713 50.4991C48.7626 50.7983 48.7068 51.1003 48.6734 51.4133C48.626 51.9647 48.7124 52.5049 48.9326 53.0313C49.1445 53.555 49.5042 54.0343 50.02 54.5025L51.152 55.5082L49.6687 55.1536C49.1278 55.0095 48.4419 54.7906 47.8648 54.5967C46.9169 54.2947 46.086 53.857 45.3806 53.3306C44.7031 52.8263 44.1483 52.2417 43.6911 51.6073C43.4401 51.2776 43.2282 50.9285 43.0275 50.5683C42.481 49.5488 42.1409 48.4794 41.9346 47.4737C41.6892 46.2962 41.6167 45.2018 41.6335 44.3263C39.4978 45.6617 38.009 47.0913 36.9913 48.3048C35.759 49.7926 35.5276 50.3605 35.4244 50.596L34.7553 51.7597L34.3566 50.79C33.8464 49.5959 33.6149 48.4987 33.4421 47.5097C33.2664 46.5095 33.2358 45.6063 33.3083 44.7835V44.7724C33.3863 43.9495 33.5703 43.2209 33.8296 42.5781C33.0016 42.8081 31.1252 43.3816 30.4087 43.3788C29.8259 44.2377 29.0313 45.0217 28.0862 45.7559C26.8343 46.7034 25.5518 47.5762 23.8846 48.3879C23.1318 48.7592 22.3344 49.111 21.5175 49.4629L21.4534 49.4961C11.7062 53.289 2.42194 53.9179 0.280693 54.4637C-0.603127 55.1896 0.896859 55.3503 1.42938 55.4833C2.80948 55.7298 4.08642 57.0181 3.55947 58.7275C3.60129 59.4146 1.31228 62.1713 2.97398 61.6643C3.14405 61.5646 3.31691 61.4621 3.48977 61.3651C3.52602 61.3568 3.56505 61.3485 3.60966 61.3346C3.91077 61.1545 4.21746 60.98 4.52972 60.8138C7.4126 59.3842 10.446 58.8716 11.9934 62.7947C12.2276 63.3155 12.406 63.5926 12.8243 63.4707C13.2257 63.238 13.4934 62.8806 13.7471 62.4872C13.9646 62.2073 14.1458 61.886 14.3549 61.5673C14.4553 61.4371 14.5612 61.3069 14.6811 61.185C15.4423 60.3317 16.2146 59.8025 16.8028 59.6197C18.0407 59.3288 19.5296 59.8219 20.5779 60.2596C21.2972 60.6254 21.3753 60.0934 21.3084 59.4728C21.2972 59.096 21.1913 58.6278 21.1355 58.3092C21.0965 58.118 21.077 57.9296 21.063 57.7385C21.063 57.7329 21.063 57.7246 21.063 57.7191C21.0407 56.1343 23.0816 55.1702 24.6513 54.8959C24.7516 54.8793 24.8409 54.8654 24.9161 54.8488H24.9663C26.9375 54.7601 27.8827 54.702 29.8566 54.7601C35.3519 54.9153 39.5452 54.4443 40.8946 54.267C41.271 54.2171 41.639 54.4166 41.7896 54.7601C41.7896 54.7601 41.7924 54.7657 41.7924 54.7685C41.8955 55.0344 41.7255 55.353 41.5108 55.4417C39.7599 56.1731 33.0685 56.5471 29.3938 56.259L30.9746 58.3979C31.3204 58.8965 31.7525 59.4091 31.9867 59.7055C36.272 65.2549 45.2691 71.1118 51.6092 76.7942C51.9298 77.1183 52.2421 77.4536 52.5348 77.7999C52.6324 77.9024 52.8666 78.1573 53.1789 78.5313C54.0822 79.609 54.3694 80.7394 54.3833 82.0416C54.3945 83.1553 54.0404 84.2552 53.296 85.0919C52.6241 85.8483 51.6984 86.3636 50.6138 86.4079C46.4819 86.4384 45.704 81.5678 45.8797 78.2404C45.9466 77.5478 46.033 76.4146 46.1669 75.8771C44.1148 74.3644 42.3528 73.0041 40.4151 71.3861C39.9076 72.2006 39.272 73.2562 38.9457 73.9682C38.4997 74.9767 38.1456 76.0461 37.6911 77.5782C37.3872 78.6754 37.1725 79.7836 37.0777 80.8779C36.7348 84.4353 37.5266 87.9234 39.3138 90.8131C41.073 93.7193 43.797 96.2904 47.4271 97.5039C48.5395 97.8834 49.5934 98.4348 50.7644 98.637C50.8007 98.6426 50.8369 98.6509 50.8759 98.6564C53.5887 99.1302 56.374 99.1302 59.0729 98.565C74.148 95.4121 74.0978 78.4787 74.0644 77.002C74.0644 76.9936 74.0644 76.9853 74.0644 76.9743L74.0588 76.9576Z" fill="white"/>
<path d="M76.3945 73C76.3945 73 76.4 73.0245 76.4 73.0382C76.3973 73.0136 76.3945 73 76.3945 73Z" fill="white"/>
<path d="M38.0408 14.0814C38.4228 15.9404 40.4887 16.7771 42.6802 16.5305C42.8224 16.5139 42.9813 16.4973 43.143 16.4862C43.7369 16.4557 44.4506 16.4862 45.2619 16.6358C46.3075 16.8159 47.0547 17.0708 47.5872 17.2786C47.8465 17.3783 48.0556 17.4614 48.2034 17.5168L48.3902 17.5778C49.8288 15.9432 49.0091 14.666 49.0091 14.666L48.8809 14.6992C48.3539 14.8322 47.8019 14.9125 47.2443 14.943C47.1327 14.9486 47.0212 14.9541 46.9097 14.9513C44.1355 14.9846 41.4004 15.3392 38.7824 13.3832L38.6124 13.253L38.3949 13.2031C38.1523 13.217 37.9711 13.3832 37.9767 13.5827L37.9934 13.6769L38.0408 14.0842V14.0814Z" fill="white"/>
<path d="M96.833 47.9956C95.7038 47.2309 94.0449 47.9429 93.1722 47.1395C92.3581 46.3914 92.7456 43.4879 92.8488 42.5044C92.8683 42.3105 92.8962 42.1276 92.938 41.9558C93.1192 41.1912 93.4482 40.5373 93.7772 39.9638C94.1062 39.3903 94.438 38.8944 94.636 38.4677C94.728 38.2682 94.7893 38.0189 94.8172 37.7557C94.8534 37.4205 94.8367 37.0603 94.8088 36.75L94.714 36.8941C94.5913 37.0686 94.4575 37.2487 94.3042 37.4038C94.1899 37.5147 94.0588 37.595 93.9055 37.6781C93.6378 37.8194 93.2921 37.9552 92.9046 38.0992C92.3163 38.3153 91.6276 38.5425 90.9696 38.7919C89.333 39.4069 88.6304 40.155 87.5152 41.5264C87.4121 41.6538 87.2531 41.737 87.0914 41.7231C86.7652 41.6926 86.7095 41.3519 86.6983 41.0748C86.6732 40.493 86.5756 39.0024 86.5505 38.4206C83.3526 39.9167 83.1742 41.9475 83.0403 42.5903C82.8424 43.5406 82.4883 45.3137 81.755 45.9343C82.8898 46.6131 84.111 47.1506 85.3712 47.5412C86.2606 47.9402 85.7253 49.2285 84.8136 48.8932C82.9957 48.184 81.3145 47.1838 79.8285 45.9315C78.8136 45.0699 77.8712 44.1224 77.0739 43.0557C77.0739 43.0557 77.0739 43.0502 77.0683 43.0502C76.1176 41.9586 75.3397 40.8947 75.0748 40.4819L74.9995 40.3655L74.9159 40.4154C74.7681 40.5096 74.5813 40.6564 74.3834 40.8338L74.3778 40.8393C73.8704 41.2854 73.4912 41.8644 73.31 42.5127C73.2458 42.7454 73.1984 42.9809 73.1761 43.2192C73.073 44.2083 73.31 45.2223 73.8871 46.0839L75.677 48.7492L75.6826 48.7602C76.02 49.3337 76.2681 50.043 76.427 50.7329C76.5079 51.0792 76.5609 51.42 76.5915 51.7386C76.6222 52.0599 76.625 52.3564 76.5999 52.6168C76.5832 52.7747 76.5553 52.9188 76.5079 53.0546C76.4493 53.2236 76.3462 53.3593 76.2235 53.4812C76.0116 53.6946 75.7328 53.8746 75.4177 54.0436C74.9493 54.2985 74.4001 54.5229 73.8982 54.7003C73.6473 54.7889 73.4103 54.8665 73.2068 54.9274C73.0033 54.9884 72.8276 55.0355 72.691 55.0632C72.6185 55.0798 72.4484 55.1186 72.2198 55.174C71.3973 55.3818 70.0228 55.8473 68.4531 56.2712C68.4615 56.2878 68.4726 56.3072 68.481 56.3238C69.3063 57.8642 70.1734 59.3631 71.0349 60.8536C74.0153 59.5099 77.8629 57.7839 78.0748 58.8006C78.1138 58.9946 78.1417 59.2356 78.1612 59.557C78.5153 65.3585 85.0812 60.5544 87.6184 71.9274C89.4446 70.7472 90.504 69.614 90.8721 69.1735C91.8535 67.996 92.3163 66.8047 92.3107 65.2671C92.3079 64.1616 90.9473 62.3802 92.0598 61.4022C92.8126 60.74 93.8609 60.8342 94.6332 61.3495C94.5495 60.945 94.3683 60.5544 94.1731 60.1776C94.0282 59.895 93.8776 59.6429 93.7744 59.496C93.03 58.4488 91.254 58.3795 90.1472 57.7007C89.7708 57.468 89.5031 57.1577 89.3832 56.7809C88.4158 57.2214 87.4455 57.6121 86.4167 57.9279C85.7141 58.1385 84.9585 58.3241 84.2113 58.3241C84.0608 58.3158 83.9074 58.313 83.7569 58.2909C83.3805 58.2188 83.1323 57.8531 83.2048 57.4763C83.2773 57.0995 83.6454 56.8557 84.0217 56.9278C84.3006 56.986 84.6491 56.9721 85.0171 56.9333C86.4028 56.7532 87.7689 56.2961 89.0849 55.8057C89.5895 55.5758 90.426 55.1934 91.201 54.836C92.0458 54.4481 92.8098 53.9051 93.4399 53.2236C93.4399 53.2208 93.4455 53.218 93.4482 53.2153C93.6601 52.9853 93.8776 52.675 94.0839 52.3259C94.3934 51.8023 94.675 51.2011 94.9176 50.6581C95.0374 50.3893 95.1518 50.1317 95.2493 49.9072C95.3497 49.6828 95.4389 49.4944 95.517 49.3421C95.7596 48.8932 96.1499 48.5885 96.5012 48.3696C96.6824 48.2588 96.8553 48.1701 97.0002 48.1064L96.833 47.9845V47.9956Z" fill="white"/>
<path d="M31.0784 34.8073C31.4018 35.0455 33.7884 36.9628 33.0245 38.4561C32.0152 40.4425 29.2299 40.498 27.0078 40.2735C28.0366 41.656 29.9464 42.1686 31.6723 41.9746C31.6778 41.9746 31.6834 41.9746 31.689 41.9746C32.5895 41.8777 33.4455 41.5286 34.1955 41.0271C34.9064 40.5561 35.57 40.0186 36.1388 39.3759C37.0226 38.3259 38.0458 36.7938 38.4501 36.8381C38.5839 36.8741 38.6174 36.9434 38.6174 37.1124C38.4445 38.6722 37.1341 40.0408 36.1276 41.1573C35.1378 43.5261 34.7392 46.1304 34.9734 48.6876C35.793 47.56 36.7159 46.5239 37.7363 45.5791C37.7754 45.5292 37.8256 45.4849 37.8869 45.4378C39.4343 43.8697 41.4501 42.1243 43.8311 41.0465C44.6731 40.6199 46.1535 39.4562 47.0708 39.8358C47.3078 39.9743 47.2437 40.1987 47.0652 40.401C46.1731 41.2405 44.7818 41.8915 43.753 42.4927C43.1341 45.762 44.0764 49.3055 46.2957 51.7906C46.6136 50.4275 46.9398 49.2334 47.7706 48.0199C48.3896 47.1445 49.265 46.2967 50.5754 45.3824C51.3394 44.82 52.725 43.6979 53.5866 43.5234C55.0726 43.443 53.1154 45.1524 52.2232 45.5791C52.3124 48.0393 54.2139 50.3804 56.5614 51.4C59.0484 52.4943 62.4638 52.6717 65.0009 51.7934C63.066 50.5716 60.501 49.4883 60.0103 46.9394C59.8569 46.1914 59.9294 45.4018 59.698 44.6759C59.6032 44.3822 59.4666 44.1107 59.2993 43.8586C59.2854 43.8392 59.2742 43.8198 59.2575 43.7977C52.5076 38.1458 44.213 34.2476 35.0654 32.8153C34.8953 32.7876 34.7196 32.7848 34.5496 32.8014C33.7131 32.8873 32.9687 32.8541 32.4167 32.6546C30.2002 31.8594 29.9743 29.4325 29.899 27.3047C27.9167 27.856 28.1816 29.5793 28.4966 31.2278C28.8005 32.8735 29.7206 33.8127 31.0728 34.8128L31.0784 34.8073Z" fill="white"/>
</g>
<defs>
<clipPath id="clip0_1543_11146">
<rect width="97" height="98.6724" fill="white" transform="translate(0 0.3125)"/>
</clipPath>
</defs>
</svg>
