
<svg width="97" height="101" viewBox="0 0 97 101" fill="none" xmlns="http://www.w3.org/2000/svg">
<path d="M42.8259 10.4461L42.891 10.4615V10.7458L42.8345 10.7663C42.3823 10.9291 42.0449 11.1877 41.8325 11.4892C41.6578 11.7392 41.567 12.0201 41.567 12.3062C41.567 12.8817 41.6133 13.3322 41.7863 13.661C41.8685 13.8186 41.9781 13.9471 42.1271 14.0515C42.593 14.3753 43.4511 14.4558 45.0321 14.2211C46.3937 14.019 47.233 14.0841 47.7332 14.3821C47.9233 14.4952 48.0637 14.6425 48.1631 14.8189C48.3275 15.1066 48.3789 15.468 48.3789 15.8723C48.3789 16.5403 48.2967 17.4052 48.0432 18.1058C47.8856 18.5408 47.6578 18.9245 47.3341 19.1523C47.1354 19.2928 46.9007 19.3715 46.6301 19.3715C46.0683 19.3715 45.3232 19.19 44.5627 19.005C43.72 18.7995 42.8499 18.5888 42.1391 18.5888C41.7486 18.5888 41.4506 18.6676 41.2125 18.8611C40.899 19.1146 40.6712 19.5822 40.4999 20.3941C40.279 21.3721 40.3612 22.2731 40.3937 22.5454L40.5205 22.5951V22.5985C41.6921 22.1634 43.2713 22.1018 45.0184 22.0881C46.2944 22.0778 47.6698 22.0675 49.0675 21.8962L49.1171 21.8894C49.1171 21.8894 49.1822 21.9767 49.1942 21.9939L49.2918 22.1258C49.0966 22.5985 48.9167 23.037 48.7472 23.4566C48.569 23.9002 48.2556 24.6076 48.2008 24.7361C48.2076 24.7464 48.2573 24.8097 48.2641 24.82C49.2593 24.6505 50.9824 24.0441 52.0478 23.1569C52.5548 22.7355 52.9881 22.2011 53.3204 21.5383C53.7092 20.7606 53.961 19.8049 54.0226 18.6385L54.0261 18.5648L54.3584 18.5306L54.3858 18.5819C55.2953 20.3376 56.5011 22.4255 58.1043 23.7684L58.1403 23.7975L58.0991 24.1332L58.0186 24.128C57.2838 24.0886 56.6158 23.8831 56.0386 23.5149C55.5025 23.1723 55.0092 22.554 54.6598 21.8517L54.569 21.8603C54.3378 22.7407 53.7863 23.7478 52.9436 24.4072C51.4431 25.5822 49.1497 26.3033 46.4023 26.2091L46.2464 25.9865C46.3681 25.6387 46.959 24.1554 47.2621 23.5834C47.2621 23.5834 47.2604 23.5799 47.2587 23.5799C47.2519 23.5697 47.245 23.5594 47.2365 23.5491C46.8322 23.5817 46.2773 23.5919 45.6641 23.6039C44.8762 23.6193 43.9907 23.6365 43.1874 23.7016L40.7603 27.6599C42.8568 28.1223 44.9327 28.6944 46.9864 29.3778C47.5516 28.9616 48.2299 28.6944 48.9373 28.5985C49.6447 28.5026 50.3812 28.5797 51.0629 28.8503C51.7446 29.1209 52.3321 29.5714 52.7808 30.1263C53.2296 30.6813 53.5379 31.3407 53.6629 32.0327C55.6327 32.9508 57.5425 33.9648 59.3906 35.0747C59.4454 34.9719 59.4831 34.9017 59.4934 34.8828C61.6121 31.0855 62.5422 28.655 62.4668 26.4746C62.4035 24.6419 61.6276 22.9736 60.2145 20.8069L60.1802 20.7538L60.3892 20.5071L60.4474 20.5346C61.1257 20.8446 61.7423 21.3499 62.2767 21.9442C63.1777 22.9479 63.8525 24.2137 64.2036 25.2636C64.2053 25.2705 64.2088 25.2739 64.2122 25.2773C64.2156 25.2808 64.2208 25.2825 64.2276 25.2842C64.2276 25.2842 64.2396 25.2842 64.243 25.2808C64.2465 25.2791 64.2499 25.2756 64.2533 25.2705C65.293 23.5337 65.6236 21.8637 65.406 20.3307C65.1697 18.6624 64.2807 17.15 62.9276 15.8894L62.8676 15.8329L63.0817 15.5862L63.1348 15.6016C63.9227 15.8312 65.6527 16.7081 66.2419 17.5628C66.2453 17.568 66.2487 17.5697 66.2522 17.5714C66.2556 17.5714 66.259 17.5731 66.2624 17.5748H66.2659C66.2659 17.5748 66.2744 17.5748 66.2779 17.5714C66.2813 17.5697 66.2847 17.5662 66.2881 17.5628C66.6324 17.0592 66.8619 16.3861 66.927 15.6616C66.9938 14.9216 66.8893 14.132 66.5707 13.4178C66.2727 12.7532 65.7897 12.1554 65.0806 11.7238C64.2876 11.2408 63.2051 10.965 61.78 11.0473L61.6944 11.0524L61.6738 10.6876L61.7492 10.6756C63.1657 10.4375 64.166 10.0333 64.9196 9.54168C65.9901 8.84457 66.569 7.96589 67.1411 7.0992C67.2593 6.92107 67.3758 6.74294 67.4974 6.56823C67.5008 6.56309 67.5008 6.55795 67.5008 6.55281C67.5008 6.5511 67.5008 6.54768 67.4991 6.54596C67.4991 6.54596 67.4974 6.54254 67.494 6.54082C66.8499 6.10748 65.8308 5.58165 64.428 5.53026C63.2325 5.48744 61.7543 5.79232 59.985 6.80631L59.913 6.84742L59.7058 6.51171L59.7777 6.46717C60.2624 6.15887 60.8482 5.59535 61.2542 4.85541C61.5505 4.31587 61.7526 3.68213 61.7526 2.98501C61.7526 2.42664 61.5864 1.73637 61.1702 1.13688C60.8431 0.667571 60.3618 0.253069 59.6852 0.00128461C59.6784 -0.000428205 59.6715 -0.000428205 59.6647 0.00128461C59.6578 0.00471025 59.651 0.00984873 59.6458 0.0167C59.1782 0.861119 58.5239 1.51028 57.7549 2.01385C55.6395 3.40294 52.649 3.69241 50.2579 3.92706C49.9359 3.9579 49.6258 3.98873 49.3295 4.02127C47.2227 4.24736 46.0666 4.73894 45.4037 5.31273C44.8539 5.7889 44.6381 6.32844 44.5062 6.84399L44.4994 6.86797C44.4994 6.86797 44.4805 6.88681 44.4788 6.88681L44.4634 6.90223L44.4428 6.90737C43.1976 7.21396 42.7711 7.32701 42.0089 7.56509C41.6629 7.673 41.4523 7.81345 41.3255 7.98644C41.1936 8.16629 41.1422 8.39238 41.1422 8.6887C41.1422 9.05867 41.2621 9.38239 41.4711 9.64959C41.7657 10.0264 42.2419 10.3005 42.8259 10.4461ZM48.5468 7.2722C48.5862 7.17799 48.6392 7.09407 48.73 7.03583C48.8277 6.97074 48.9578 6.94334 49.1308 6.94334C49.6395 6.94334 50.2065 7.0187 50.758 7.13346C51.3661 7.26021 51.9416 7.45547 52.1694 7.73637C52.2362 7.81859 52.2773 7.91108 52.2773 8.01385C52.2773 8.11662 52.2413 8.20397 52.1796 8.28447C51.9176 8.62361 51.1228 8.82744 50.2287 9.06209C49.1702 9.33957 48.6461 9.44405 48.3772 9.44405C48.3275 9.44405 48.2813 9.43378 48.2402 9.41493C48.2025 9.39781 48.1717 9.37211 48.1477 9.343C48.0963 9.28133 48.0757 9.20254 48.0757 9.12547C48.0757 8.65273 48.2659 7.93506 48.5468 7.2722Z" fill="white"/>
<path d="M41.2856 17.492C44.7301 17.492 44.9836 18.0932 46.2562 18.0932C46.7598 18.0932 46.8762 17.8105 46.8762 17.2813C46.8762 16.4917 46.1192 15.8391 44.3721 15.8391H41.7121C38.4783 15.8391 37.1115 13.9927 36.6147 13.9927C36.5548 13.9927 36.5068 14.0629 36.5068 14.3883C36.5068 15.8511 37.8411 17.492 41.2856 17.492Z" fill="white"/>
<path d="M47.8821 36.8515C52.3097 38.6122 56.4291 40.8988 60.1955 43.677L65.5344 36.0481L64.7414 35.5343C64.5341 35.399 64.3097 35.3151 64.0819 35.2774C63.8541 35.2397 63.6023 35.25 63.3728 35.3082C63.1433 35.3664 62.9241 35.4709 62.7339 35.6182C62.5438 35.7655 62.3931 35.9402 62.2749 36.1578L61.2284 38.0676L61.1513 38.0145C58.7482 36.3976 56.2218 34.9605 53.5858 33.6999C53.5532 33.8129 53.5156 33.926 53.4727 34.0373C53.1764 34.7807 52.7534 35.3373 52.2001 35.6867C51.9295 35.858 51.6469 35.9848 51.3351 36.0636L51.2666 36.0807L51.133 35.7929L51.181 35.7501C51.6092 35.3801 51.9689 34.8851 52.2121 34.2719C52.5256 33.4841 52.4896 32.6431 52.1796 31.9203C51.8678 31.1974 51.282 30.5945 50.4924 30.2811C49.7045 29.9676 48.8635 30.0036 48.1407 30.3136C47.4179 30.6236 46.815 31.2111 46.5016 32.0008C46.2583 32.6139 46.1796 33.222 46.2361 33.7838L46.2429 33.8472L45.9483 33.9654L45.9106 33.9054C45.7376 33.6348 45.6195 33.3487 45.5407 33.037C45.378 32.4033 45.4533 31.7096 45.7479 30.9645C45.7925 30.8515 45.8438 30.7418 45.8987 30.6356C43.117 29.7415 40.2926 29.0564 37.4356 28.5803L37.3431 28.5648L37.8947 26.4581C37.958 26.2183 37.9666 25.9785 37.9306 25.7507C37.8947 25.5229 37.8073 25.2865 37.6806 25.0861C37.5538 24.8857 37.3859 24.711 37.1855 24.5774C36.9851 24.4438 36.7728 24.3547 36.5295 24.3102L35.6012 24.1389L34.2412 33.3505C38.8881 33.9174 43.451 35.0873 47.8787 36.848L47.8821 36.8515Z" fill="white"/>
<path d="M87.2806 96.2853C86.6348 95.8862 85.9891 95.4854 85.3417 95.0846C83.8515 94.1614 81.9554 93.7075 80.2426 93.7075C79.0231 93.7075 77.1304 93.9473 75.4775 94.9356C77.0242 95.8948 78.5572 96.8437 80.0953 97.796C80.7547 98.2037 81.4142 98.613 82.0753 99.0224H82.0719C83.562 99.9456 85.4581 100.4 87.171 100.4H87.1761C88.8187 100.4 90.8141 99.9833 92.3711 98.8922C91.1824 98.6524 89.9063 97.8919 88.4881 97.0338C88.0856 96.7837 87.6831 96.5354 87.2806 96.2853Z" fill="white"/>
<path d="M60.6546 53.2303C62.3383 53.1413 63.6058 52.7371 64.1796 52.3106C64.1847 52.3071 64.1864 52.3037 64.1882 52.3003C64.1882 52.2952 64.1899 52.29 64.1882 52.2849C64.1864 52.2797 64.1847 52.2729 64.1796 52.2695C64.1762 52.266 64.1728 52.2626 64.1659 52.2626C62.8744 51.9629 62.0643 51.6563 60.8893 50.6971C59.9832 49.9572 59.1953 48.8986 58.6472 47.6894C58.1145 46.5161 57.8079 45.1972 57.8439 43.8921C54.581 41.65 51.0611 39.7727 47.3135 38.2809C43.4459 36.7428 39.4739 35.6705 35.4351 35.0693C33.6041 36.9243 31.7337 37.5786 30.4182 37.791C29.0565 38.0102 27.6743 37.8201 26.561 37.248L26.4805 37.2994C26.5507 38.4881 27.068 39.6443 27.9364 40.499C28.8613 41.4085 30.2315 42.0062 31.9752 41.9943C33.974 41.9788 35.865 41.3845 38.0146 39.8669L38.2818 40.093C37.4117 41.8812 36.6649 44.5155 36.6649 47.3468C36.6649 48.7582 36.9955 50.173 37.4528 51.2024H37.547C38.1722 49.791 38.9566 48.3471 40.0391 46.8295C41.5704 44.6834 43.4185 42.8729 45.0149 41.441L45.0594 41.4016C45.0594 41.4016 45.1827 41.465 45.2067 41.477C45.2307 41.489 45.354 41.5541 45.354 41.5541L45.3472 41.6123C44.9772 44.7108 45.0714 48.2512 46.1916 51.1698V51.1664C46.9281 53.0865 48.4594 54.8353 50.215 56.0103L50.2938 55.9554C49.9461 54.4739 49.7902 52.9888 49.8947 51.4833C50.0489 49.2241 50.6449 47.2218 51.7514 45.3805L51.7822 45.3291C51.7822 45.3291 51.921 45.3582 51.9466 45.3634C51.9723 45.3685 52.1128 45.3976 52.1128 45.3976L52.1196 45.4593C52.3029 46.9974 52.8014 48.4944 53.579 49.7585C54.1785 50.7313 54.9441 51.5655 55.8587 52.1718C56.9892 52.9203 58.3389 53.2458 59.9387 53.2492C59.9369 53.244 59.9352 53.2423 59.9352 53.2406H60.0637C60.259 53.2441 60.4542 53.2406 60.6546 53.2303Z" fill="white"/>
<path d="M96.0367 48.5797C96.6568 47.3413 96.9873 46.0447 96.9993 44.8766C97.0079 44.0818 96.8692 43.3487 96.5763 42.7321C96.5728 42.7253 96.5694 42.7218 96.566 42.7201C96.5609 42.7167 96.5557 42.715 96.5489 42.7167C96.542 42.7184 96.5352 42.7184 96.5317 42.7236C96.5283 42.727 96.5232 42.7304 96.5215 42.739C96.2697 43.3744 95.9014 43.8352 95.4475 44.1743C94.4215 44.9399 92.9691 45.0667 91.4892 45.1986C89.5332 45.3733 87.5206 45.5565 86.2034 47.1255L86.1606 47.1769C86.1606 47.1769 86.0424 47.1186 86.0253 47.1101C86.0082 47.1015 85.8883 47.0416 85.8883 47.0416L85.9054 46.9748C86.0219 46.5192 86.2548 46.1132 86.5392 45.7638C87.0753 45.1027 87.7981 44.6316 88.2725 44.3987C88.2777 44.397 88.2794 44.3936 88.2828 44.3901C88.2845 44.3867 88.2862 44.3833 88.2862 44.3781C88.2862 44.373 88.2862 44.3696 88.2845 44.3661C88.2845 44.3627 88.2811 44.361 88.2777 44.3576C87.8101 44.027 87.0239 43.7153 86.2137 43.7153C85.2014 43.7153 84.417 43.9876 83.7884 44.4364C82.3993 45.4298 81.757 47.2916 81.1523 49.0576C80.659 50.4997 80.1863 51.8871 79.3231 52.5979C79.0199 52.848 78.6688 53.0159 78.2525 53.0724L78.196 53.081L78.0607 52.8566L78.1155 52.8103C78.5386 52.4506 78.8589 51.9848 79.0935 51.4761C79.4858 50.6265 79.6382 49.6622 79.6382 48.8863C79.6382 48.1669 79.532 47.4681 79.4258 46.7795C79.2922 45.9077 79.1586 45.0496 79.2614 44.2034C79.3248 43.6844 79.5235 42.9805 79.7478 42.4289C79.7495 42.4238 79.7495 42.4204 79.7495 42.417C79.7495 42.4135 79.7478 42.4084 79.7444 42.405C79.741 42.4015 79.7376 42.3981 79.7341 42.3964C79.7307 42.3964 79.7273 42.3947 79.7204 42.3964C79.0576 42.4957 78.4581 42.8623 77.9425 43.3676C76.997 44.2976 76.3616 45.685 76.1972 46.6699L76.1852 46.7418H75.8597L75.846 46.6716C75.6405 45.5788 75.6491 44.6385 75.906 43.7512C76.1835 42.7904 76.7487 41.8997 77.6291 40.9491C77.6342 40.9439 77.6359 40.9388 77.6376 40.9354V40.92C77.6376 40.92 77.6325 40.9097 77.6274 40.9062C77.6239 40.9028 77.6188 40.9011 77.6137 40.9011C76.687 40.824 75.8032 40.9679 74.993 41.2728C74.0167 41.6411 73.1466 42.2457 72.4358 42.9856C71.7181 43.7324 71.1649 44.6179 70.8309 45.5309C70.5603 46.2742 70.4335 47.0347 70.4815 47.7575C70.5877 49.3796 71.1957 50.4878 71.7473 51.488C72.2251 52.3547 72.667 53.1546 72.667 54.1309C72.667 54.5745 72.5283 54.9668 72.2594 55.2768C71.9442 55.6399 71.4578 55.8814 70.8258 55.9705C68.4963 56.2993 66.1172 56.7687 63.7021 57.5343C64.228 58.5174 64.759 59.4732 65.2865 60.4238C65.5588 60.912 65.8278 61.3967 66.0932 61.8831C68.3199 60.8726 71.8038 59.6582 72.9034 59.9134C73.1295 59.9665 73.2854 60.0504 73.3916 60.1755C73.5646 60.381 73.5783 60.6756 73.5971 61.0027C73.6279 61.532 73.669 62.2428 74.2668 63.1403C75.1541 64.4712 76.6562 65.2129 78.1018 65.922C79.419 66.5694 80.6984 67.1946 81.3493 68.2377C81.6302 68.6899 81.7929 69.2174 81.7929 69.8546C81.7929 70.7127 81.5805 71.2968 81.1232 72.2354C81.1198 72.2405 81.1198 72.2457 81.1198 72.2508C81.1198 72.256 81.1215 72.2611 81.1249 72.2662C81.1284 72.2714 81.1318 72.2748 81.1369 72.2765H81.1301C81.1301 72.2765 81.1386 72.2817 81.1438 72.2799C82.9063 72.1258 84.196 71.5554 85.0798 70.7675C85.8797 70.055 86.3507 69.1609 86.5426 68.2223C86.7533 67.1946 86.6265 66.1155 86.224 65.1683C85.8523 64.2914 85.2426 63.5309 84.4495 63.0273L84.3913 62.9896C84.3913 62.9896 84.4375 62.8663 84.4444 62.8492C84.4512 62.832 84.4958 62.7104 84.4958 62.7104L84.5626 62.719C85.2871 62.8029 85.9859 63.1181 86.582 63.548C87.2722 64.0464 87.8272 64.7024 88.1287 65.3465C88.1304 65.3516 88.1338 65.355 88.1372 65.3567C88.1406 65.3602 88.1458 65.3619 88.1509 65.3619C88.1509 65.3619 88.1612 65.3619 88.1663 65.3602C88.1698 65.3602 88.1749 65.355 88.1783 65.3516C88.4815 64.9782 88.6459 64.4558 88.6391 63.8512C88.6305 62.9571 88.2468 61.8951 87.4076 60.9C86.8098 60.1926 85.9996 59.6051 85.061 59.1529C83.7336 58.514 82.1509 58.1509 80.5563 58.1081H80.4946C80.4946 58.1081 80.4604 57.9882 80.4535 57.9693C80.4467 57.9505 80.4124 57.8289 80.4124 57.8289L80.4672 57.7946C80.7995 57.584 81.166 57.4624 81.5566 57.4041C82.6973 57.2363 84.059 57.6165 85.3779 57.983C86.4621 58.2845 87.5189 58.5791 88.4335 58.5791C89.8055 58.5791 90.8983 57.894 91.9911 57.2054C92.8766 56.647 93.7655 56.0852 94.7898 55.9277C95.2728 55.854 95.7867 55.8694 96.3433 56.0167C96.3502 56.0184 96.3553 56.0167 96.3605 56.0167C96.3656 56.0167 96.3707 56.0116 96.3759 56.0065C96.381 56.0013 96.3827 55.9962 96.3827 55.991C96.3827 55.9859 96.3827 55.9808 96.381 55.9756C96.1121 55.3453 95.701 54.8948 95.2163 54.5745C94.0002 53.7729 92.3062 53.7712 91.1312 53.7712L90.5831 53.7678L90.5643 53.6445C90.5591 53.6051 90.5369 53.4595 90.5369 53.4595L90.6037 53.4372C93.1352 52.5723 94.9953 50.6625 96.0367 48.5797Z" fill="white"/>
<path d="M42.5531 93.7075C41.3336 93.7075 39.441 93.9473 37.7881 94.9356C39.0641 95.7269 40.3299 96.5097 41.5974 97.2959C42.524 97.8697 43.4524 98.4452 44.3859 99.0224C45.876 99.9456 47.7738 100.4 49.4849 100.4C51.6482 100.4 53.3645 99.6938 54.25 99.1714C52.0404 97.8029 49.86 96.4532 47.6522 95.0846C46.1621 94.1614 44.2643 93.7075 42.5531 93.7075Z" fill="white"/>
<path d="M7.00866 23.7983C7.98154 24.4029 9.82111 24.9853 12.0135 24.9853C13.5328 24.9853 15.2662 24.6821 16.5217 24.4372L16.5833 24.4252L16.6141 24.48C17.5511 26.1791 17.7634 28.5565 17.993 31.0949C18.3441 34.9813 18.7329 39.265 21.7286 42.2608L21.7321 42.2556C23.2205 43.7441 24.9282 44.3316 26.4971 44.448C28.4737 44.5953 30.2242 43.9958 31.0258 43.5145C29.3678 43.3707 27.9359 42.6581 26.8842 41.6082C25.7812 40.5068 25.0995 39.0372 25.0155 37.4649C24.9676 36.5417 25.1217 35.7435 25.2947 35.1509L25.3067 35.108C25.3067 35.108 25.4078 35.0755 25.43 35.0669C25.4591 35.0584 25.5705 35.0207 25.5705 35.0207L25.6064 35.0481C26.5365 35.7503 27.6858 36.4355 29.5322 36.3378C31.019 36.2608 32.2916 35.6544 33.3261 34.8717C30.3492 34.6216 27.494 33.1606 25.3786 30.8654C23.1914 28.4914 21.792 25.2251 21.8605 21.4774V21.4243L21.9085 21.4021C22.8471 20.9465 23.9502 19.9719 24.7483 18.6975C25.3889 17.6733 25.8308 16.4606 25.8308 15.1725C25.8308 14.8848 25.8154 14.4497 25.7298 14.0181C25.7195 13.9684 25.6972 13.9273 25.6681 13.8948C25.6356 13.8605 25.5945 13.8348 25.5499 13.8228C25.5054 13.8109 25.4557 13.8091 25.4095 13.8228C25.3667 13.8348 25.3255 13.8588 25.2913 13.8948C24.6096 14.6244 23.4226 15.6196 22.4514 16.0409C22.1603 16.1677 21.8828 16.2448 21.6396 16.2448C21.47 16.2448 21.3244 16.1968 21.1994 16.1077C20.8568 15.8645 20.6701 15.3164 20.4423 14.6621C20.3721 14.46 20.2967 14.2442 20.2111 14.0198C19.4968 12.1323 18.6387 10.8425 17.7206 9.96215C16.9464 9.2205 16.1294 8.77003 15.3175 8.50283C15.2696 8.48742 15.2216 8.4857 15.1805 8.49598C15.1343 8.50626 15.0932 8.53024 15.0589 8.56278C15.0247 8.59532 15.0007 8.63643 14.9887 8.68268C14.9784 8.7255 14.9767 8.77174 14.9921 8.82142C15.3295 9.9553 15.8931 12.2796 15.8931 14.0369C15.8931 14.3675 15.8434 14.633 15.7492 14.8403C15.6875 14.9756 15.6087 15.0852 15.5111 15.1708C15.41 15.2599 15.2936 15.3198 15.1651 15.3524C14.9835 15.4003 14.7831 15.3952 14.5742 15.3524C13.9781 15.2274 13.3666 14.9944 12.6969 14.7409C11.4055 14.2493 9.88791 13.6721 7.80855 13.5985C7.75031 13.5968 7.70064 13.6122 7.66125 13.6379C7.61671 13.6653 7.58246 13.7081 7.5619 13.756C7.54135 13.804 7.53621 13.8571 7.54649 13.9085C7.55677 13.9547 7.57903 13.9993 7.62185 14.0404C7.74175 14.1534 7.87364 14.2785 8.0158 14.4121C9.42888 15.7395 11.8251 17.9884 12.4366 19.4032C12.5308 19.6207 12.5856 19.8263 12.5856 20.0095C12.5856 20.3984 12.4589 20.7341 12.2396 21.0287C11.5117 22.005 9.74917 22.5274 8.15625 23.0036C7.78114 23.1149 7.4146 23.2245 7.07032 23.3376C7.01894 23.3547 6.97954 23.3821 6.95043 23.4181C6.9196 23.4557 6.89904 23.502 6.89219 23.5517C6.88534 23.6013 6.89219 23.6493 6.91446 23.6938C6.9333 23.7332 6.96413 23.7709 7.00866 23.7983Z" fill="white"/>
<path d="M60.2128 95.0846C58.7226 94.1614 56.8265 93.7075 55.1137 93.7075C53.8942 93.7075 52.0015 93.9473 50.3486 94.9356C51.8953 95.8948 53.4283 96.8437 54.9664 97.796C55.6258 98.2037 56.2853 98.613 56.9464 99.0224C58.4366 99.9473 60.3327 100.401 62.0455 100.401C64.2088 100.401 65.925 99.6955 66.8105 99.1731C65.5122 98.3681 64.2225 97.5699 62.9327 96.77C62.0283 96.2099 61.124 95.6499 60.2128 95.0846Z" fill="white"/>
<path d="M35.0917 95.0846C33.6015 94.1614 31.7054 93.7075 29.9926 93.7075C28.7731 93.7075 26.8804 93.9473 25.2275 94.9356C26.7742 95.8948 28.3072 96.8437 29.8453 97.796C30.5047 98.2037 31.1642 98.613 31.8253 99.0224C33.3155 99.9473 35.2116 100.401 36.9244 100.401C39.0877 100.401 40.8039 99.6955 41.6894 99.1731C40.3911 98.3681 39.1014 97.5699 37.8116 96.77C36.9072 96.2099 36.0029 95.6499 35.0917 95.0846Z" fill="white"/>
<path d="M67.6742 93.7075C66.4547 93.7075 64.562 93.9473 62.9092 94.9356C64.3308 95.816 65.7388 96.6878 67.1501 97.5631C67.9329 98.0478 68.7191 98.5342 69.507 99.0224C70.9971 99.9456 72.8932 100.4 74.606 100.4C76.7693 100.4 78.4855 99.6938 79.3711 99.1714C77.1615 97.8029 74.9811 96.4532 72.7733 95.0846C71.2831 94.1614 69.3871 93.7075 67.6742 93.7075Z" fill="white"/>
<path d="M15.6106 58.7103C15.9566 58.5356 16.3214 58.4363 16.7137 58.4363C17.1419 58.4363 17.5238 58.5664 17.8664 58.7925C18.6372 59.2995 19.2075 60.293 19.6769 61.3857C19.7231 61.4919 19.7933 61.5673 19.8755 61.6153C19.9663 61.6684 20.0708 61.6889 20.1736 61.6786C20.2763 61.6684 20.3757 61.6255 20.4528 61.557C20.523 61.4936 20.5761 61.4063 20.5984 61.2915C20.8793 59.8905 20.7799 58.6041 20.6977 57.549C20.6326 56.7132 20.5761 56.0041 20.7491 55.5159C20.8022 55.3686 20.8758 55.2384 20.9786 55.1305C21.1447 54.9558 21.3554 54.8205 21.6089 54.7212C22.342 54.43 23.4588 54.4129 25.0157 54.5019C26.5607 54.5893 28.1091 54.8171 29.7311 55.0552C31.5313 55.3189 33.4222 55.5964 35.5136 55.7146C37.634 55.8345 39.3383 55.7626 40.4842 55.5947L40.539 55.5861L40.7103 55.8585L40.6777 55.9047C40.4551 56.225 40.1296 56.4905 39.7048 56.7029C38.7114 57.2013 37.163 57.4154 35.0905 57.3435C33.5199 57.2887 31.8653 57.0934 30.1576 56.8913C29.8801 56.8588 29.6009 56.8262 29.32 56.7937C30.877 61.0004 35.3474 64.5784 39.7545 68.1034C43.6615 71.2276 47.5187 74.3107 49.1664 77.738C49.6974 78.8445 50.0006 79.9887 50.0006 81.1825C50.0006 82.4757 49.6238 83.5051 48.9986 84.2125C48.692 84.5585 48.3289 84.8274 47.9229 85.0106C47.4999 85.2008 47.0323 85.3001 46.5407 85.3001C45.4205 85.3001 44.523 84.937 43.8259 84.3289C42.7725 83.4109 42.1884 81.9413 41.9692 80.3466C41.7551 78.7828 41.8921 77.0854 42.2963 75.6432C42.567 74.6755 42.9609 73.8157 43.4525 73.1853C42.0617 71.9264 40.4705 70.647 38.7936 69.3058C38.696 69.2287 38.5984 69.1482 38.499 69.0694C38.4356 69.0198 38.3723 68.9684 38.3106 68.9187C36.0565 71.1471 34.3163 75.0472 34.0457 79.2967C33.8984 81.6158 34.1879 84.0361 35.07 86.3415C35.815 88.2924 36.9849 90.1628 38.6703 91.8208C38.9341 92.0794 39.2047 92.3312 39.4822 92.5762C40.652 92.2593 41.7517 92.1651 42.5618 92.1651C44.5127 92.1651 46.7 92.6755 48.471 93.7734C48.5533 93.8248 48.6355 93.8745 48.7177 93.9259L48.7143 93.9293C48.7725 93.9653 48.8307 94.0012 48.8873 94.0372L49.4217 93.7032C51.4376 92.4443 53.714 92.1685 55.1202 92.1685C57.0711 92.1685 59.2584 92.6789 61.0294 93.7768C61.1014 93.8214 61.1733 93.8659 61.2452 93.9104C61.312 93.9516 61.3806 93.9944 61.4474 94.0355C62.559 93.2836 63.5901 92.4169 64.5373 91.4594C67.8944 88.068 69.5764 83.6678 69.5764 78.2519C69.5764 71.2995 66.9181 66.5191 63.9412 61.1699C62.8639 59.2344 61.7454 57.2236 60.6989 55.0089C60.6629 54.9336 60.6269 54.8531 60.5892 54.7708C58.4345 54.8719 56.4356 54.3992 54.8599 53.3715C54.1319 52.897 53.4177 52.1571 52.8439 51.3058C52.3609 50.5899 51.9738 49.7934 51.7631 49.0072L51.6637 49.0106C51.4736 50.0863 51.3828 51.5233 51.3897 52.6041C51.4017 54.3443 51.5832 56.0692 51.9241 57.7768L51.9344 57.8248C51.9344 57.8248 51.8796 57.8728 51.8727 57.8796C51.8265 57.9207 51.7117 58.0218 51.7117 58.0218L51.6654 58.0064C49.9646 57.4189 48.4385 56.5659 47.1881 55.3635C46.133 54.3512 45.2749 53.0923 44.6686 51.5405C43.9972 49.8191 43.5621 47.2567 43.8327 44.6618L43.7437 44.6224C42.6732 45.8608 41.6729 47.1419 40.9638 48.1405C40.0919 49.3669 39.2047 50.7132 37.7557 53.5719L37.7334 53.6147C37.7334 53.6147 37.6152 53.6232 37.5878 53.625C37.5604 53.6267 37.4422 53.6352 37.4422 53.6352L37.4148 53.5958C36.0685 51.7272 35.2738 50.1223 35.1299 47.3989C35.0494 45.8625 35.3937 43.7951 36.2895 42.1474L36.2175 42.0806C25.3394 49.2025 11.9812 51.6724 4.16215 52.6007C1.74879 52.8679 0.724522 53.0751 0.291179 53.3064C0.224379 53.3423 0.174708 53.3766 0.137026 53.4109C0.0993437 53.4451 0.075364 53.4759 0.056523 53.5085C0.0359692 53.5445 0.0222666 53.5804 0.0137025 53.6215C0.00342562 53.6712 0 53.7277 0 53.7911C0 53.8973 0.0342566 53.9847 0.0942052 54.06C0.256923 54.2621 0.621753 54.382 1.09449 54.4831C1.24008 54.5139 1.39595 54.5465 1.55866 54.5807C2.58464 54.7931 3.92578 55.0706 4.85413 55.4817C5.30289 55.6803 5.54953 55.8619 5.67457 56.0537C5.76192 56.1873 5.7859 56.3192 5.7859 56.4511C5.7859 56.5744 5.75678 56.6892 5.70026 56.7971C5.53925 57.1105 5.15901 57.3829 4.66572 57.7374C4.5972 57.7871 4.52527 57.8385 4.45162 57.8933C3.32287 58.7137 2.48187 59.3595 1.85156 60.2262C1.78818 60.3135 1.75906 60.4077 1.75906 60.4985C1.75906 60.5996 1.79161 60.6989 1.84984 60.7811C1.90808 60.8633 1.99201 60.9284 2.08793 60.9627C2.17528 60.9935 2.27291 60.9986 2.3791 60.9695C3.45304 60.6646 4.45675 60.3392 4.54925 60.3084C4.55267 60.3084 4.5561 60.3067 4.55781 60.305C6.57894 59.6832 7.98687 59.3612 8.89295 59.4725C9.15844 59.5051 9.38453 59.5753 9.57294 59.6901C9.70825 59.7723 9.81959 59.8973 9.91037 60.0532C10.3214 60.7417 10.4208 62.1086 10.479 63.2904C10.4842 63.3966 10.5201 63.4857 10.5732 63.5576C10.6315 63.6364 10.7154 63.6929 10.8062 63.7237C10.897 63.7546 10.998 63.7597 11.0922 63.734C11.1779 63.71 11.2601 63.6604 11.3286 63.5799C11.8596 62.9547 12.3391 62.3004 12.7982 61.6769C13.7385 60.3974 14.5984 59.2225 15.6106 58.7103Z" fill="white"/>
<path d="M17.4338 93.7075C15.8032 93.7075 13.7974 94.1186 12.2354 95.2148C13.4258 95.4546 14.7035 96.2168 16.1252 97.0766C17.17 97.7241 18.2148 98.3715 19.2665 99.0224C20.7566 99.9456 22.6527 100.4 24.3655 100.4C26.5288 100.4 28.2451 99.6938 29.1306 99.1714C26.9211 97.8029 24.7406 96.4532 22.5328 95.0846C21.0427 94.1614 19.1466 93.7075 17.4338 93.7075Z" fill="white"/>
</svg>
