<svg width="32" height="32" viewBox="0 0 32 32" fill="none" xmlns="http://www.w3.org/2000/svg">
<circle cx="16" cy="16" r="15.25" stroke="#FF8A45" stroke-width="1.5"/>
<path d="M11.9395 20.0605C11.5672 20.0605 11.2486 19.928 10.9835 19.663C10.7185 19.3979 10.5859 19.0792 10.5859 18.707V10.5859C10.5859 10.2137 10.7185 9.89508 10.9835 9.63002C11.2486 9.36495 11.5672 9.23242 11.9395 9.23242H22.7676C23.1398 9.23242 23.4584 9.36495 23.7235 9.63002C23.9886 9.89508 24.1211 10.2137 24.1211 10.5859V18.707C24.1211 19.0792 23.9886 19.3979 23.7235 19.663C23.4584 19.928 23.1398 20.0605 22.7676 20.0605H11.9395ZM11.9395 18.707H22.7676V10.5859H11.9395V18.707ZM9.23242 22.7676C8.86021 22.7676 8.54157 22.635 8.2765 22.37C8.01144 22.1049 7.87891 21.7863 7.87891 21.4141V11.9395H9.23242V21.4141H21.4141V22.7676H9.23242Z" fill="#FF8A45"/>
</svg>