<svg width="32" height="33" viewBox="0 0 32 33" fill="none" xmlns="http://www.w3.org/2000/svg">
<circle cx="16" cy="16.9355" r="15.2" stroke="#FF8A45" stroke-width="1.6"/>
<g clip-path="url(#clip0_1543_819)">
<path d="M12.49 11.6865C12.49 12.377 11.935 12.9365 11.25 12.9365C10.565 12.9365 10.01 12.377 10.01 11.6865C10.01 10.9965 10.565 10.4365 11.25 10.4365C11.935 10.4365 12.49 10.9965 12.49 11.6865ZM12.5 13.9365H10V21.9365H12.5V13.9365ZM16.491 13.9365H14.007V21.9365H16.4915V17.737C16.4915 15.402 19.506 15.211 19.506 17.737V21.9365H22V16.871C22 12.931 17.539 13.0745 16.491 15.014V13.9365Z" fill="#FF8A45"/>
</g>
<defs>
<clipPath id="clip0_1543_819">
<rect width="12" height="12" fill="white" transform="translate(10 9.93555)"/>
</clipPath>
</defs>
</svg>
