<svg width="32" height="33" viewBox="0 0 32 33" fill="none" xmlns="http://www.w3.org/2000/svg">
<circle cx="16" cy="16.3164" r="15.2" fill="#FF8A45" stroke="#FF8A45" stroke-width="1.6"/>
<g clip-path="url(#clip0_1543_7379)">
<path d="M12.49 11.0664C12.49 11.7569 11.935 12.3164 11.25 12.3164C10.565 12.3164 10.01 11.7569 10.01 11.0664C10.01 10.3764 10.565 9.81641 11.25 9.81641C11.935 9.81641 12.49 10.3764 12.49 11.0664ZM12.5 13.3164H10V21.3164H12.5V13.3164ZM16.491 13.3164H14.007V21.3164H16.4915V17.1169C16.4915 14.7819 19.506 14.5909 19.506 17.1169V21.3164H22V16.2509C22 12.3109 17.539 12.4544 16.491 14.3939V13.3164Z" fill="white"/>
</g>
<defs>
<clipPath id="clip0_1543_7379">
<rect width="12" height="12" fill="white" transform="translate(10 9.31641)"/>
</clipPath>
</defs>
</svg>