<svg width="222" height="59" viewBox="0 0 222 59" fill="none" xmlns="http://www.w3.org/2000/svg">
<path d="M73.2196 33.9093C70.2458 33.9093 67.8859 33.0388 66.1405 31.2979C64.3945 29.5576 63.5215 27.2332 63.5215 24.3253C63.5215 21.2646 64.4902 18.7923 66.4276 16.9082C68.3651 15.0241 70.8597 14.082 73.9101 14.082C75.8476 14.082 77.4111 14.4365 78.6006 15.1434V18.4433C77.9484 17.9266 77.1185 17.4964 76.1115 17.1522C75.1044 16.808 74.1207 16.6355 73.1615 16.6355C71.3007 16.6355 69.7754 17.2913 68.5859 18.6007C67.3964 19.9109 66.8016 21.6089 66.8016 23.694C66.8016 25.9135 67.4586 27.7397 68.7725 29.1745C70.0865 30.6094 71.7799 31.3265 73.852 31.3265C75.732 31.3265 77.5068 30.5903 79.1762 29.1173V32.4172C77.6797 33.4117 75.6944 33.9093 73.219 33.9093H73.2196Z" fill="white"/>
<path d="M97.8524 29.232C98.6769 31.2599 99.4063 32.7234 100.039 33.6219H95.6654C95.6654 32.7998 95.4063 31.6805 94.8881 30.2647L94.2551 28.5722H86.3699L85.7656 30.2075C85.2282 31.6614 84.9596 32.7998 84.9596 33.6219H80.9883C81.6979 32.6655 82.4561 31.1924 83.2614 29.2027L87.6935 18.0692C88.1344 16.9411 88.4126 16.1422 88.5282 15.6732C88.643 15.2049 88.6526 14.7789 88.5569 14.3965H91.7803L97.8524 29.2313V29.232ZM87.2334 26.2477H93.3629L90.7152 19.2465C90.4848 18.6343 90.3412 18.1844 90.2838 17.8981C90.0342 18.6439 89.8811 19.0938 89.823 19.2465L87.2334 26.2477Z" fill="white"/>
<path d="M109.854 31.2974C111.542 31.2974 113.086 31.0104 114.487 30.4365L114.026 33.6212H102.572C102.841 32.8564 102.975 31.6607 102.975 30.0343V17.9547C102.975 16.3481 102.84 15.162 102.572 14.3965H106.544C106.275 15.162 106.141 16.3474 106.141 17.9547V31.2974H109.853H109.854Z" fill="white"/>
<path d="M124.963 31.2974C126.612 31.2974 128.138 31.0104 129.538 30.4365L129.078 33.6212H117.25C117.519 32.8564 117.653 31.6607 117.653 30.0343V17.9547C117.653 16.3481 117.518 15.162 117.25 14.3965H128.761V17.438C127.553 16.9411 126.046 16.6923 124.243 16.6923H120.819V22.1442H127.15V24.956C126.267 24.6118 124.981 24.4393 123.293 24.4393H120.819V31.2974H124.963Z" fill="white"/>
<path d="M138.546 14.3965C141.922 14.3965 144.54 15.1811 146.402 16.7496C148.263 18.318 149.193 20.6425 149.193 23.7222C149.193 26.9553 148.176 29.4324 146.143 31.1536C144.205 32.7991 141.394 33.6212 137.711 33.6212H132.416C132.685 32.8564 132.819 31.6607 132.819 30.0343V17.9547C132.819 16.3481 132.684 15.162 132.416 14.3965H138.546ZM137.625 31.326C143.15 31.326 145.913 28.9634 145.913 24.2389C145.913 19.1885 142.929 16.6637 136.963 16.6637H135.985V31.326H137.625Z" fill="white"/>
<path d="M161.797 33.9093C158.881 33.9093 156.531 33.0341 154.747 31.2836C152.962 29.5331 152.07 27.2046 152.07 24.2966C152.07 21.3887 153.015 18.8161 154.905 16.9225C156.794 15.0288 159.255 14.082 162.286 14.082C165.317 14.082 167.543 14.962 169.308 16.7221C171.073 18.4821 171.955 20.8256 171.955 23.752C171.955 26.6783 171.02 29.1991 169.15 31.0832C167.279 32.9673 164.828 33.9093 161.797 33.9093ZM162.402 31.3265C164.262 31.3265 165.773 30.6715 166.934 29.3613C168.095 28.0512 168.675 26.4111 168.675 24.4405C168.675 22.1835 168.018 20.3185 166.704 18.8454C165.39 17.3724 163.707 16.6362 161.654 16.6362C159.773 16.6362 158.253 17.2865 157.092 18.5871C155.932 19.8884 155.351 21.5427 155.351 23.5509C155.351 25.7888 156.008 27.6449 157.322 29.1173C158.636 30.5903 160.329 31.3265 162.402 31.3265Z" fill="white"/>
<path d="M188.85 14.3965H192.533C192.265 15.162 192.131 16.3474 192.131 17.9547V33.6219H189.829L179.642 20.7959C179.315 20.3753 179.066 19.9922 178.894 19.6479C178.932 19.954 178.952 20.365 178.952 20.8817V30.035C178.952 31.6614 179.085 32.857 179.354 33.6219H175.671C175.939 32.857 176.073 31.6614 176.073 30.035V16.8354L174.289 14.4251V14.3965H178.491L188.39 26.8783C188.678 27.2416 188.985 27.6915 189.311 28.2266C189.272 27.6915 189.253 27.2034 189.253 26.7631V17.9547C189.253 16.3481 189.119 15.162 188.851 14.3965H188.85Z" fill="white"/>
<path d="M196.445 33.6219C196.714 32.857 196.848 31.6614 196.848 30.035V17.9547C196.848 16.3481 196.713 15.162 196.445 14.3965H200.417C200.148 15.162 200.014 16.3474 200.014 17.9547V30.035C200.014 31.6614 200.148 32.857 200.417 33.6219H196.445Z" fill="white"/>
<path d="M219.815 29.232C220.64 31.2599 221.369 32.7234 222.002 33.6219H217.628C217.628 32.7998 217.369 31.6805 216.851 30.2647L216.218 28.5722H208.333L207.728 30.2075C207.191 31.6614 206.922 32.7998 206.922 33.6219H202.951C203.661 32.6655 204.419 31.1924 205.224 29.2027L209.656 18.0692C210.097 16.9411 210.376 16.1422 210.491 15.6732C210.606 15.2049 210.615 14.7789 210.52 14.3965H213.743L219.815 29.2313V29.232ZM209.196 26.2477H215.326L212.678 19.2465C212.448 18.6343 212.304 18.1844 212.247 17.8981C211.997 18.6439 211.844 19.0938 211.786 19.2465L209.196 26.2477Z" fill="white"/>
<path d="M65.7276 47.0016C65.6941 47.3015 65.6435 47.5442 65.5792 47.7262L65.5156 47.9075H67.9378L67.8742 47.7262C67.8099 47.5442 67.7593 47.3015 67.7258 47.0023C67.6923 46.7023 67.6753 46.3452 67.6753 45.9321V39.7365C67.6753 39.3282 67.6923 38.9751 67.7258 38.6772C67.7593 38.38 67.8099 38.1387 67.8742 37.9567L67.9378 37.7754H65.5156L65.5792 37.9567C65.6435 38.1387 65.6941 38.38 65.7276 38.6779C65.7611 38.9751 65.7781 39.3289 65.7781 39.7365V45.9321C65.7781 46.3452 65.7611 46.7023 65.7276 47.0023V47.0016Z" fill="white"/>
<path d="M72.8202 47.0003C72.7867 46.7004 72.7696 46.3432 72.7696 45.9301V41.2356C72.7696 41.1987 72.7696 41.1626 72.7696 41.1279C72.8045 41.1763 72.8407 41.2253 72.8797 41.2751L78.1465 47.9062H79.5302V39.7346C79.5302 39.3262 79.5473 38.9731 79.5808 38.6753C79.6143 38.3781 79.6649 38.1368 79.7291 37.9548L79.7927 37.7734H77.5182L77.5818 37.9548C77.6461 38.1368 77.6966 38.3781 77.7301 38.6759C77.7636 38.9731 77.7807 39.3269 77.7807 39.7346V44.2526C77.7807 44.3323 77.7821 44.4162 77.7848 44.502C77.7158 44.4025 77.6481 44.3105 77.5818 44.2273L72.4634 37.7734H70.1055V37.9691L71.0202 39.2056V45.9301C71.0202 46.3432 71.0031 46.7004 70.9696 47.0003C70.9361 47.3002 70.8855 47.5429 70.8212 47.7249L70.7577 47.9062H73.0321L72.9686 47.7249C72.9043 47.5429 72.8537 47.3002 72.8202 47.001V47.0003Z" fill="white"/>
<path d="M82.9716 40.2124L86.0466 47.9069H87.7537L90.7836 39.9752C91.1158 39.1074 91.433 38.4421 91.7297 37.9848L91.8658 37.7741H89.5742V37.9105C89.5742 38.0366 89.5414 38.2404 89.4717 38.5089C89.4019 38.7782 89.296 39.1136 89.1538 39.513L87.3373 44.7106C87.2088 45.0944 87.1062 45.4086 87.0297 45.6561C86.9237 45.3493 86.7979 44.9942 86.6509 44.5893L84.8058 39.6139C84.6595 39.2199 84.5501 38.8791 84.4783 38.5941C84.4059 38.3092 84.3717 38.0788 84.3717 37.9098V37.7734H81.6973L81.8511 37.9888C82.2045 38.4844 82.5805 39.2267 82.9716 40.2117V40.2124Z" fill="white"/>
<path d="M93.9919 47.0016C93.9584 47.3015 93.9078 47.5442 93.8436 47.7262L93.78 47.9075H100.158L100.445 45.9212L100.223 46.0118C99.5226 46.2988 98.7589 46.4433 97.9283 46.4433H95.9396V43.1986H97.0724C97.9283 43.1986 98.5751 43.2872 99.0003 43.4543L99.1869 43.5272V41.7488H95.9396V39.2253H97.5592C98.4711 39.2253 99.2266 39.3514 99.8241 39.5975L100.013 39.6752V37.7754H93.7793L93.8429 37.9567C93.9071 38.1387 93.9577 38.38 93.9912 38.6779C94.0247 38.9751 94.0418 39.3289 94.0418 39.7372V45.9327C94.0418 46.3458 94.0247 46.703 93.9912 47.0029L93.9919 47.0016Z" fill="white"/>
<path d="M105.413 48.0555C105.956 48.0555 106.447 47.9894 106.885 47.8545C107.323 47.7202 107.709 47.5164 108.039 47.2444C108.368 46.9724 108.619 46.6466 108.785 46.271C108.951 45.8954 109.033 45.4728 109.033 45.0051C109.033 44.3739 108.869 43.8259 108.534 43.3787C108.208 42.9411 107.808 42.6064 107.34 42.3808C106.89 42.164 106.442 41.9643 105.997 41.7816C105.565 41.605 105.2 41.3862 104.897 41.1272C104.752 41.0025 104.647 40.8689 104.577 40.7244C104.508 40.5798 104.473 40.4244 104.473 40.252C104.473 40.0672 104.506 39.9111 104.57 39.7769C104.634 39.6432 104.729 39.5308 104.859 39.4347C105.126 39.2397 105.473 39.1375 105.915 39.1375C106.319 39.1375 106.74 39.2193 107.179 39.3863C107.622 39.554 107.993 39.7564 108.295 39.9916L108.516 40.1634V38.1232L108.442 38.085C107.828 37.7687 107.097 37.6133 106.254 37.6133C105.716 37.6133 105.227 37.6767 104.785 37.8048C104.344 37.933 103.951 38.1259 103.61 38.3842C103.268 38.6433 103.006 38.9561 102.834 39.3188C102.66 39.6814 102.575 40.0925 102.575 40.5458C102.575 41.0475 102.691 41.4967 102.927 41.8825C103.159 42.2622 103.454 42.558 103.81 42.7611C104.147 42.954 104.514 43.147 104.91 43.3392C105.305 43.5307 105.67 43.7032 106.006 43.8559C106.323 44.0004 106.583 44.1981 106.79 44.451C106.992 44.6977 107.091 44.9786 107.092 45.3139C107.092 45.515 107.058 45.6868 106.996 45.8327C106.933 45.9785 106.841 46.0992 106.715 46.2014C106.587 46.3044 106.434 46.3828 106.253 46.4359C106.071 46.4891 105.861 46.5171 105.62 46.5171C105.148 46.5171 104.644 46.4134 104.106 46.2028C103.566 45.9915 103.108 45.7243 102.728 45.4019L102.502 45.211V47.2669L102.557 47.3078C102.806 47.4905 103.18 47.654 103.69 47.8142C104.207 47.9758 104.782 48.0562 105.414 48.0562L105.413 48.0555Z" fill="white"/>
<path d="M113.746 39.2233V45.9301C113.746 46.3432 113.729 46.7004 113.696 47.0003C113.662 47.3002 113.612 47.5429 113.547 47.7249L113.484 47.9062H115.927L115.855 47.7208C115.788 47.545 115.733 47.3057 115.697 47.0064C115.661 46.7072 115.643 46.348 115.643 45.9301V39.2233H116.333C117.245 39.2233 118 39.3494 118.597 39.5955L118.786 39.6732V37.7734H110.602V39.6732L110.79 39.5955C111.388 39.3494 112.143 39.2233 113.055 39.2233H113.745H113.746Z" fill="white"/>
<path d="M129.615 40.8068L129.617 40.8048C129.654 40.7434 129.688 40.6848 129.721 40.6282C129.718 40.7298 129.717 40.8245 129.717 40.9111V45.9294C129.717 46.3425 129.699 46.6997 129.666 46.9996C129.632 47.2996 129.582 47.5422 129.518 47.7242L129.454 47.9055H131.729L131.665 47.7242C131.601 47.5422 131.55 47.2996 131.517 47.0003C131.483 46.7004 131.466 46.3432 131.466 45.9301V39.7346C131.466 39.3262 131.483 38.9731 131.517 38.6753C131.55 38.3781 131.601 38.1368 131.665 37.9548L131.729 37.7734H129.422L129.408 37.8934C129.405 37.9166 129.393 37.9629 129.369 38.0236C129.334 38.1149 129.274 38.2397 129.19 38.3931C129.106 38.5464 128.998 38.7298 128.866 38.9418L127.047 41.832L127.051 41.8259C126.818 42.194 126.613 42.5348 126.432 42.8518C126.27 42.558 126.057 42.2028 125.792 41.7816L123.242 37.7741H121.012L121.075 37.9554C121.14 38.1374 121.19 38.3787 121.224 38.6766C121.257 38.9738 121.274 39.3276 121.274 39.7352V45.9308C121.274 46.3439 121.257 46.7011 121.224 47.001C121.19 47.3009 121.14 47.5436 121.075 47.7256L121.012 47.9069H123.286L123.223 47.7256C123.158 47.5436 123.108 47.3009 123.074 47.0017C123.041 46.7017 123.024 46.3446 123.024 45.9315V41.2219C123.024 41.0536 123.02 40.8886 123.015 40.7257C123.035 40.7611 123.057 40.7979 123.079 40.8354V40.8368L126.266 45.832H126.446L129.615 40.8082V40.8068Z" fill="white"/>
<path d="M134.596 47.0016C134.563 47.3015 134.512 47.5442 134.448 47.7262L134.384 47.9075H140.761L141.048 45.9212L140.827 46.0118C140.126 46.2988 139.362 46.4433 138.532 46.4433H136.543V43.1986H137.676C138.532 43.1986 139.179 43.2872 139.604 43.4543L139.79 43.5272V41.7488H136.543V39.2253H138.163C139.075 39.2253 139.83 39.3514 140.428 39.5975L140.616 39.6752V37.7754H134.383L134.446 37.9567C134.511 38.1387 134.561 38.38 134.595 38.6779C134.628 38.9751 134.645 39.3289 134.645 39.7365V45.9321C134.645 46.3452 134.628 46.7023 134.595 47.0023L134.596 47.0016Z" fill="white"/>
<path d="M145.512 47.0003C145.478 46.7004 145.461 46.3432 145.461 45.9301V41.2356C145.461 41.1987 145.461 41.1626 145.461 41.1279C145.496 41.1763 145.532 41.2253 145.571 41.2751L150.838 47.9062H152.222V39.7346C152.222 39.3262 152.239 38.9731 152.272 38.6753C152.306 38.3781 152.356 38.1368 152.421 37.9548L152.484 37.7734H150.21L150.273 37.9548C150.337 38.1368 150.388 38.3781 150.422 38.6759C150.455 38.9731 150.472 39.3269 150.472 39.7346V44.2526C150.472 44.3323 150.474 44.4162 150.476 44.502C150.407 44.4025 150.34 44.3105 150.273 44.2273L145.155 37.7734H142.797V37.9691L143.712 39.2049V45.9294C143.712 46.3425 143.694 46.6997 143.661 46.9996C143.628 47.2996 143.577 47.5422 143.513 47.7242L143.449 47.9055H145.724L145.66 47.7242C145.596 47.5422 145.545 47.2996 145.512 47.0003Z" fill="white"/>
<path d="M157.848 39.2233V45.9301C157.848 46.3432 157.831 46.7004 157.797 47.0003C157.764 47.3002 157.713 47.5429 157.649 47.7249L157.585 47.9062H160.029L159.957 47.7208C159.889 47.545 159.835 47.3057 159.799 47.0064C159.763 46.7072 159.744 46.348 159.744 45.9301V39.2233H160.434C161.346 39.2233 162.102 39.3494 162.699 39.5955L162.888 39.6732V37.7734H154.703V39.6732L154.892 39.5955C155.489 39.3494 156.244 39.2233 157.157 39.2233H157.847H157.848Z" fill="white"/>
<path d="M169.638 42.3808C169.188 42.164 168.741 41.9643 168.295 41.7816C167.863 41.605 167.498 41.3862 167.196 41.1272C167.05 41.0025 166.945 40.8689 166.876 40.7244C166.806 40.5798 166.771 40.4244 166.771 40.252C166.771 40.0672 166.805 39.9111 166.869 39.7769C166.933 39.6432 167.027 39.5308 167.158 39.4347C167.425 39.2397 167.772 39.1375 168.214 39.1375C168.618 39.1375 169.039 39.2193 169.478 39.3863C169.921 39.554 170.292 39.7564 170.594 39.9916L170.815 40.1634V38.1232L170.741 38.085C170.127 37.7687 169.396 37.6133 168.553 37.6133C168.015 37.6133 167.526 37.6767 167.084 37.8048C166.643 37.933 166.25 38.1259 165.909 38.3842C165.566 38.6433 165.305 38.9561 165.132 39.3188C164.959 39.6814 164.874 40.0925 164.874 40.5458C164.874 41.0475 164.99 41.4967 165.226 41.8825C165.458 42.2622 165.752 42.558 166.109 42.7611C166.446 42.954 166.813 43.147 167.209 43.3392C167.604 43.5307 167.969 43.7032 168.304 43.8559C168.622 44.0004 168.881 44.1981 169.089 44.451C169.291 44.6977 169.389 44.9786 169.391 45.3139C169.391 45.515 169.357 45.6868 169.295 45.8327C169.232 45.9785 169.14 46.0992 169.013 46.2014C168.886 46.3044 168.734 46.3828 168.552 46.4359C168.37 46.4891 168.16 46.5171 167.919 46.5171C167.447 46.5171 166.943 46.4134 166.405 46.2028C165.865 45.9915 165.406 45.7243 165.026 45.4019L164.801 45.211V47.2669L164.856 47.3078C165.105 47.4905 165.479 47.654 165.989 47.8142C166.506 47.9758 167.081 48.0562 167.712 48.0562C168.255 48.0562 168.746 47.9901 169.184 47.8551C169.623 47.7209 170.009 47.517 170.338 47.2451C170.668 46.9731 170.919 46.6472 171.085 46.2717C171.251 45.8961 171.333 45.4734 171.333 45.0058C171.333 44.3746 171.168 43.8266 170.834 43.3794C170.507 42.9418 170.108 42.6071 169.64 42.3815L169.638 42.3808Z" fill="white"/>
<g class="icon" clip-path="url(#clip0_484_553)">
<path d="M26.6376 4.98231L26.4342 5.22417C26.2925 5.38983 26.1458 5.54058 26.0041 5.70459C24.5054 7.34463 27.7845 9.21493 29.0382 7.52023C29.1249 7.40592 29.2649 7.338 29.4066 7.37444C29.48 7.3877 29.535 7.43574 29.5583 7.53845L29.565 7.54507L29.7417 8.14974L29.7534 8.17293L29.7717 8.26404V8.27067C29.8084 8.4413 29.8417 8.61856 29.8384 8.78753C29.8267 9.34746 29.8367 9.39716 29.6283 9.93059L29.5783 10.0283C29.4133 10.3514 29.1432 10.6115 28.8165 10.7688L28.5847 10.691L28.5414 10.6777H28.5347C28.2413 10.5866 27.9412 10.5187 27.6412 10.4806C27.3344 10.4441 27.0293 10.4309 26.7276 10.4491C26.4959 10.459 26.2625 10.4839 26.0357 10.5319L25.9957 12.5712L29.3766 12.5132L28.8348 13.5701C29.49 13.4012 30.0068 13.1659 30.4169 12.886C30.7236 12.6723 30.9704 12.4437 31.1787 12.2051C31.2521 12.114 31.3188 12.0229 31.3805 11.9318C31.5588 11.6766 31.6939 11.4083 31.8006 11.1465C31.9039 10.8864 31.9723 10.6247 32.0223 10.3812C32.109 9.91899 32.0773 10.0747 32.189 9.6705C32.5508 9.90242 32.7392 10.2487 32.8909 10.6694C33.1593 11.4066 33.2476 12.3757 33.9828 12.6756C33.346 12.601 32.7592 12.1985 32.4657 11.6369C31.7872 13.5519 30.1818 14.1317 28.233 14.415L27.5461 14.5161L28.173 13.2885L25.9507 13.2405L25.0488 14.8756C25.2155 14.9385 25.3856 15.0048 25.5606 15.0727C25.7307 15.139 25.9057 15.2069 26.0824 15.2765C26.7459 15.5365 27.4578 15.8215 28.198 16.1279L28.328 16.1793H28.3313C28.4014 16.1329 28.473 16.0898 28.5481 16.0517C28.7915 15.9242 29.0615 15.8347 29.3499 15.79C30.7586 15.568 32.084 16.5139 32.324 17.9071L32.4507 17.9651C33.1426 18.2799 33.8361 18.6062 34.5196 18.9392C35.0547 19.1993 35.5849 19.4643 36.1067 19.7344C36.5635 18.9011 37.392 17.5079 37.7338 16.6928C38.4973 14.8722 38.2122 14.6138 37.6171 13.2405C37.4887 12.9456 37.1936 12.5729 37.1136 12.4453C38.4056 13.0864 38.8707 13.4095 38.9591 14.743L40.6279 8.31374C40.8879 7.08951 40.2711 5.82883 39.0341 5.62507C38.704 5.56874 37.9988 5.61016 37.7121 5.59691C37.5771 5.59194 37.5587 5.40805 37.6821 5.37161C38.2089 5.22086 39.2208 5.09496 39.7043 4.85972C40.2928 4.56816 40.7412 4.0281 41.1163 3.46817C41.2697 3.23624 41.093 2.93806 40.8179 2.95628C38.8374 3.07224 38.9758 2.09484 39.3709 1.34109C39.5042 1.07934 39.2292 0.797722 38.9541 0.900431C36.2501 1.92421 35.7549 1.42392 35.7549 1.42392C35.6566 1.3063 35.6082 1.16052 35.6016 1.01474L35.5249 0.149989C35.5132 0.0340266 35.3898 -0.0322377 35.2848 0.0158039L32.6991 1.27648L32.324 1.37256L28.9465 2.11307C28.8732 2.13129 28.7998 2.13792 28.7198 2.14951C28.2363 2.20418 27.7945 2.45267 27.4795 2.82872C27.0944 3.1882 26.4509 3.23956 25.8024 3.52946C25.624 3.60898 25.4389 3.70009 25.4506 3.89392V3.91877C25.6323 4.94255 26.5992 5.00053 26.6376 4.98231ZM30.4519 3.36049L30.5052 3.32239C30.8587 3.09709 31.4038 3.09046 31.7906 3.24287C32.4741 3.551 31.6205 4.15566 31.0937 4.32132C30.5069 4.5168 29.8534 3.80777 30.4519 3.36049Z" fill="white"/>
<path d="M38.1871 22.2248L38.1738 22.2149L38.3272 22.036L39.7392 20.3992L38.3455 19.4749L36.9952 21.4992C35.8499 20.8084 34.5662 20.1309 33.2492 19.4881C32.699 19.2197 32.1439 18.9596 31.5871 18.7062L31.4854 18.6598C31.2937 17.5399 30.2301 16.7812 29.0981 16.9601C28.7947 17.0065 28.5196 17.1158 28.2812 17.2716H28.2779L28.1745 17.2302C27.5811 16.985 27.0092 16.7564 26.4774 16.5476C25.5922 16.1997 24.807 15.9032 24.1768 15.6696C23.7334 15.5056 23.365 15.3714 23.0916 15.2754L23.9935 12.9694L22.4014 12.5254L21.8429 14.5133L21.6979 15.0318L20.7793 18.355C26.4524 19.1568 31.5954 21.544 35.7515 25.0427L38.1888 22.2232L38.1871 22.2248Z" fill="white"/>
<path d="M9.6646 14.3286C10.2664 14.4892 10.5648 16.2817 10.5648 16.2817L10.5765 16.3148C10.7082 16.7058 10.8066 17.1067 10.8632 17.5142V17.5192C10.8849 17.7097 10.9066 17.8787 10.9233 18.0162C11.035 18.7964 11.185 19.5916 11.4084 20.3139C11.6318 21.0428 11.9269 21.7004 12.3203 22.2107C12.577 22.5553 12.8788 22.8336 13.2289 23.044C13.7023 23.3289 14.2625 23.4912 14.9976 23.4879C15.0677 23.4846 15.1427 23.483 15.2177 23.4796C16.163 23.4233 18.3485 23.3902 18.3652 22.05C18.3719 21.3824 17.5666 20.733 17.1282 20.3056L17.1232 20.294L17.0615 20.2393C16.9998 20.1797 16.9331 20.1134 16.8731 20.0472C16.5697 19.7241 16.308 19.3564 16.1113 18.9621C15.9946 18.7152 15.9062 18.4933 15.8512 18.2829C15.7962 18.0725 15.7695 17.8869 15.7662 17.7097V17.6981C15.7662 17.554 15.7845 17.4181 15.8145 17.2922C15.5261 17.1133 15.1277 16.8433 14.5842 16.4175C14.2425 16.1492 13.9657 15.8394 13.749 15.5064C13.5306 15.18 13.4139 14.8272 13.2905 14.4876C13.1355 13.7835 12.8788 12.6935 13.3939 12.1037C13.8424 11.6183 14.6292 11.0236 15.0093 10.3891C15.3494 9.85737 15.4628 9.08374 15.3811 8.51718C15.2327 7.28301 14.6992 8.30182 14.2258 8.74745C13.8323 9.14172 13.2355 9.45979 12.7054 9.18645C11.9969 8.79715 12.1669 7.52487 11.4734 6.47624C11.0433 5.81194 10.2881 5.03334 9.5079 4.91406C9.31785 4.91738 9.30118 5.08635 9.4012 5.39945C9.58625 5.96435 9.95301 6.79265 10.0497 7.45198C10.1364 8.0086 10.1114 8.85016 9.51123 9.06552C9.01443 9.1732 8.29758 8.58344 7.16062 8.26041C6.81553 8.08315 4.52494 7.74851 5.42351 8.47245C7.67242 9.69171 9.72295 12.7266 5.50853 13.4058C4.87336 13.4787 4.71499 13.6311 5.09342 14.0221C6.36208 15.1618 8.44929 14.1911 9.66794 14.3269L9.6646 14.3286Z" fill="white"/>
<path d="M44.2838 45.8303C44.2838 45.822 44.2838 45.8137 44.2838 45.8087C44.2838 45.8004 44.2838 45.7938 44.2838 45.7855C44.2037 43.9633 43.717 42.2487 42.8867 40.5556C41.8431 38.4385 40.5595 36.4323 39.4142 34.2937C39.2991 34.08 39.1858 33.8679 39.0741 33.6426V33.636L38.4172 32.1384L37.8154 32.2361C37.1803 32.3405 36.5434 32.3604 35.9133 32.3024C33.2626 32.0639 31.3171 30.5779 30.5202 28.0847C30.2001 28.426 29.9517 28.8086 29.6733 29.1814C29.6066 29.2775 29.5416 29.3653 29.4899 29.4514C29.3832 29.6386 29.2832 29.8208 29.2232 30.0097C29.1582 30.1886 29.1248 30.3692 29.1048 30.5564C29.0765 30.886 29.1282 31.2091 29.2599 31.5238C29.3866 31.8369 29.6016 32.1235 29.91 32.4035L30.5869 33.0048L29.7 32.7928C29.3766 32.7066 28.9665 32.5758 28.6214 32.4598C28.0546 32.2792 27.5578 32.0175 27.136 31.7027C26.7309 31.4012 26.3991 31.0517 26.1257 30.6723C25.9757 30.4752 25.849 30.2664 25.729 30.0511C25.4022 29.4415 25.1988 28.802 25.0755 28.2007C24.9288 27.4966 24.8854 26.8422 24.8954 26.3188C23.6184 27.1172 22.7282 27.972 22.1197 28.6976C21.3828 29.5872 21.2445 29.9268 21.1828 30.0677L20.7827 30.7634L20.5443 30.1836C20.2392 29.4696 20.1008 28.8136 19.9975 28.2222C19.8925 27.6242 19.8741 27.0841 19.9175 26.5921V26.5855C19.9641 26.0935 20.0742 25.6578 20.2292 25.2734C19.7341 25.4109 18.6121 25.7539 18.1837 25.7522C17.8353 26.2657 17.3601 26.7346 16.795 27.1736C16.0465 27.7401 15.2796 28.262 14.2827 28.7473C13.8326 28.9693 13.3558 29.1797 12.8673 29.3901L12.829 29.41C7.00079 31.6779 1.44936 32.0539 0.169025 32.3803C-0.359445 32.8143 0.537454 32.9104 0.85587 32.9899C1.68108 33.1373 2.44461 33.9077 2.12953 34.9298C2.15454 35.3406 0.785851 36.989 1.77944 36.6858C1.88113 36.6262 1.98449 36.5649 2.08785 36.5069C2.10953 36.5019 2.13287 36.4969 2.15954 36.4887C2.33959 36.381 2.52297 36.2766 2.70968 36.1772C4.43346 35.3224 6.24726 35.0159 7.1725 37.3617C7.31254 37.6731 7.41923 37.8388 7.6693 37.7659C7.90936 37.6267 8.0694 37.413 8.22111 37.1778C8.35114 37.0105 8.4595 36.8183 8.58453 36.6278C8.64455 36.55 8.7079 36.4721 8.77958 36.3992C9.2347 35.889 9.69649 35.5726 10.0482 35.4632C10.7884 35.2893 11.6787 35.5842 12.3055 35.8459C12.7356 36.0646 12.7823 35.7465 12.7423 35.3754C12.7356 35.1501 12.6723 34.8702 12.6389 34.6796C12.6156 34.5653 12.6039 34.4527 12.5956 34.3384C12.5956 34.3351 12.5956 34.3301 12.5956 34.3268C12.5822 33.3792 13.8025 32.8027 14.7411 32.6387C14.8011 32.6288 14.8545 32.6205 14.8995 32.6105H14.9295C16.1081 32.5575 16.6733 32.5227 17.8536 32.5575C21.1394 32.6503 23.6468 32.3687 24.4536 32.2627C24.6787 32.2328 24.8988 32.3521 24.9888 32.5575C24.9888 32.5575 24.9904 32.5608 24.9904 32.5625C25.0521 32.7215 24.9504 32.912 24.8221 32.9651C23.7751 33.4024 19.7741 33.626 17.5769 33.4538L18.5221 34.7327C18.7288 35.0308 18.9872 35.3373 19.1273 35.5146C21.6896 38.8328 27.0693 42.3348 30.8603 45.7325C31.052 45.9263 31.2387 46.1268 31.4138 46.3339C31.4721 46.3952 31.6122 46.5476 31.7989 46.7712C32.339 47.4156 32.5107 48.0915 32.5191 48.8701C32.5257 49.5361 32.314 50.1938 31.8689 50.694C31.4671 51.1463 30.9136 51.4544 30.2651 51.4809C27.7945 51.4992 27.3294 48.5868 27.4344 46.5973C27.4744 46.1831 27.5261 45.5056 27.6061 45.1842C26.3791 44.2797 25.3255 43.4663 24.1669 42.4988C23.8635 42.9859 23.4834 43.617 23.2883 44.0428C23.0216 44.6458 22.8099 45.2852 22.5381 46.2013C22.3564 46.8574 22.2281 47.52 22.1714 48.1743C21.9663 50.3014 22.4398 52.3871 23.5084 54.1149C24.5603 55.8527 26.1891 57.39 28.3596 58.1156C29.0248 58.3426 29.655 58.6723 30.3552 58.7932C30.3768 58.7965 30.3985 58.8015 30.4218 58.8048C32.0439 59.0881 33.7094 59.0881 35.3231 58.7501C44.3371 56.8649 44.3071 46.7397 44.2871 45.8568C44.2871 45.8518 44.2871 45.8468 44.2871 45.8402L44.2838 45.8303Z" fill="white"/>
<path d="M45.6797 43.4648C45.6797 43.4648 45.683 43.4795 45.683 43.4877C45.6813 43.473 45.6797 43.4648 45.6797 43.4648Z" fill="white"/>
<path d="M22.7454 8.23413C22.9738 9.34571 24.2092 9.84601 25.5195 9.69857C25.6045 9.68863 25.6995 9.67869 25.7962 9.67206C26.1513 9.65384 26.5781 9.67206 27.0632 9.76152C27.6884 9.8692 28.1352 10.0216 28.4536 10.1459C28.6086 10.2055 28.7337 10.2552 28.822 10.2883L28.9337 10.3248C29.7939 9.34737 29.3038 8.58367 29.3038 8.58367L29.2271 8.60355C28.912 8.68307 28.582 8.73111 28.2485 8.74933C28.1819 8.75265 28.1152 8.75596 28.0485 8.7543C26.3897 8.77418 24.7543 8.98623 23.1889 7.81666L23.0872 7.7388L22.9572 7.70898C22.8121 7.71727 22.7038 7.81666 22.7071 7.93594L22.7171 7.99226L22.7454 8.23579V8.23413Z" fill="white"/>
<path d="M57.8991 28.5113C57.2239 28.054 56.232 28.4798 55.7102 27.9994C55.2234 27.5521 55.4551 25.816 55.5168 25.2279C55.5285 25.1119 55.5451 25.0026 55.5701 24.8999C55.6785 24.4426 55.8752 24.0517 56.0719 23.7088C56.2687 23.3659 56.467 23.0693 56.5854 22.8142C56.6404 22.6949 56.6771 22.5458 56.6938 22.3885C56.7154 22.188 56.7054 21.9726 56.6888 21.7871L56.6321 21.8733C56.5587 21.9776 56.4787 22.0853 56.387 22.1781C56.3187 22.2443 56.2403 22.2924 56.1486 22.3421C55.9886 22.4266 55.7819 22.5077 55.5501 22.5939C55.1984 22.7231 54.7866 22.8589 54.3932 23.008C53.4146 23.3758 52.9945 23.8231 52.3276 24.6431C52.266 24.7193 52.1709 24.769 52.0742 24.7607C51.8792 24.7425 51.8458 24.5387 51.8392 24.3731C51.8242 24.0252 51.7658 23.1339 51.7508 22.786C49.8387 23.6806 49.732 24.8949 49.6519 25.2792C49.5336 25.8474 49.3219 26.9077 48.8834 27.2788C49.5619 27.6846 50.2921 28.006 51.0456 28.2396C51.5774 28.4781 51.2574 29.2485 50.7122 29.048C49.6253 28.6239 48.62 28.0259 47.7314 27.2771C47.1246 26.7619 46.5611 26.1953 46.0844 25.5575C46.0844 25.5575 46.0844 25.5542 46.081 25.5542C45.5125 24.9015 45.0474 24.2654 44.889 24.0186L44.844 23.949L44.794 23.9788C44.7057 24.0351 44.594 24.1229 44.4756 24.2289L44.4723 24.2323C44.1689 24.499 43.9421 24.8452 43.8338 25.2328C43.7954 25.372 43.7671 25.5128 43.7537 25.6553C43.6921 26.2467 43.8338 26.853 44.1789 27.3682L45.2491 28.9619L45.2525 28.9685C45.4542 29.3114 45.6026 29.7355 45.6976 30.148C45.7459 30.3551 45.7776 30.5588 45.7959 30.7493C45.8143 30.9415 45.8159 31.1188 45.8009 31.2745C45.7909 31.3689 45.7743 31.4551 45.7459 31.5362C45.7109 31.6373 45.6492 31.7185 45.5759 31.7913C45.4492 31.9189 45.2825 32.0266 45.0941 32.1276C44.814 32.28 44.4856 32.4142 44.1855 32.5203C44.0355 32.5733 43.8938 32.6197 43.7721 32.6561C43.6504 32.6925 43.5454 32.7207 43.4637 32.7373C43.4203 32.7472 43.3186 32.7704 43.1819 32.8035C42.6901 32.9278 41.8683 33.2061 40.9297 33.4595C40.9347 33.4695 40.9414 33.4811 40.9464 33.491C41.4398 34.4121 41.9583 35.3083 42.4734 36.1996C44.2555 35.3961 46.5561 34.3641 46.6828 34.972C46.7062 35.088 46.7229 35.2321 46.7345 35.4243C46.9462 38.8932 50.8723 36.0207 52.3893 42.821C53.4813 42.1153 54.1148 41.4378 54.3348 41.1744C54.9216 40.4703 55.1984 39.758 55.195 38.8385C55.1934 38.1776 54.3798 37.1124 55.045 36.5276C55.4951 36.1317 56.122 36.188 56.5837 36.4961C56.5337 36.2542 56.4254 36.0207 56.3087 35.7954C56.222 35.6264 56.132 35.4756 56.0703 35.3878C55.6252 34.7616 54.5632 34.7202 53.9014 34.3144C53.6763 34.1752 53.5163 33.9897 53.4446 33.7644C52.8661 34.0278 52.286 34.2613 51.6708 34.4502C51.2507 34.5761 50.7989 34.6871 50.3521 34.6871C50.2621 34.6821 50.1704 34.6805 50.0804 34.6672C49.8553 34.6241 49.707 34.4055 49.7503 34.1802C49.7936 33.9549 50.0137 33.8091 50.2388 33.8522C50.4055 33.887 50.6139 33.8787 50.8339 33.8555C51.6625 33.7478 52.4793 33.4745 53.2662 33.1812C53.568 33.0437 54.0681 32.8151 54.5315 32.6014C55.0367 32.3695 55.4935 32.0448 55.8702 31.6373C55.8702 31.6356 55.8736 31.634 55.8752 31.6323C56.0019 31.4948 56.132 31.3093 56.2553 31.1005C56.4404 30.7874 56.6087 30.428 56.7538 30.1033C56.8255 29.9426 56.8938 29.7885 56.9522 29.6543C57.0122 29.5201 57.0655 29.4075 57.1122 29.3164C57.2572 29.048 57.4906 28.8658 57.7007 28.7349C57.8091 28.6686 57.9124 28.6156 57.9991 28.5775L57.8991 28.5046V28.5113Z" fill="white"/>
<path d="M18.5824 20.6267C18.7758 20.7692 20.2028 21.9156 19.746 22.8085C19.1425 23.9962 17.4771 24.0294 16.1484 23.8952C16.7636 24.7218 17.9056 25.0283 18.9375 24.9124C18.9408 24.9124 18.9442 24.9124 18.9475 24.9124C19.486 24.8544 19.9978 24.6456 20.4462 24.3458C20.8713 24.0642 21.2681 23.7428 21.6082 23.3585C22.1367 22.7306 22.7485 21.8145 22.9902 21.841C23.0702 21.8625 23.0902 21.904 23.0902 22.005C22.9869 22.9377 22.2033 23.756 21.6015 24.4237C21.0097 25.84 20.7713 27.3973 20.9113 28.9263C21.4015 28.2521 21.9533 27.6325 22.5634 27.0676C22.5868 27.0378 22.6168 27.0113 22.6535 26.9831C23.5787 26.0455 24.784 25.0018 26.2077 24.3574C26.7112 24.1023 27.5964 23.4065 28.1449 23.6335C28.2866 23.7163 28.2482 23.8505 28.1415 23.9714C27.6081 24.4733 26.7762 24.8627 26.161 25.2221C25.7909 27.1769 26.3544 29.2957 27.6814 30.7817C27.8715 29.9667 28.0665 29.2527 28.5633 28.5271C28.9334 28.0036 29.4569 27.4967 30.2404 26.95C30.6972 26.6137 31.5257 25.9428 32.0409 25.8384C32.9294 25.7904 31.7591 26.8125 31.2257 27.0676C31.279 28.5387 32.416 29.9385 33.8197 30.5481C35.3067 31.2025 37.3489 31.3085 38.866 30.7834C37.709 30.0528 36.1753 29.4051 35.8819 27.881C35.7902 27.4337 35.8335 26.9616 35.6952 26.5275C35.6385 26.3519 35.5568 26.1896 35.4568 26.0388C35.4484 26.0272 35.4418 26.0157 35.4318 26.0024C31.3957 22.6229 26.4361 20.2921 20.9663 19.4356C20.8647 19.419 20.7596 19.4174 20.6579 19.4273C20.1578 19.4787 19.7127 19.4588 19.3826 19.3395C18.0573 18.8641 17.9222 17.4129 17.8772 16.1406C16.6919 16.4703 16.8503 17.5007 17.0387 18.4864C17.2204 19.4704 17.7705 20.032 18.5791 20.63L18.5824 20.6267Z" fill="white"/>
</g>
<defs>
<clipPath id="clip0_484_553">
<rect width="58" height="59" fill="white"/>
</clipPath>
</defs>
</svg>