<!-- <svg width="222" height="59" viewBox="0 0 222 59" fill="none" xmlns="http://www.w3.org/2000/svg">
<path d="M73.2196 33.9093C70.2458 33.9093 67.8859 33.0388 66.1405 31.2979C64.3945 29.5576 63.5215 27.2332 63.5215 24.3253C63.5215 21.2646 64.4902 18.7923 66.4276 16.9082C68.3651 15.0241 70.8597 14.082 73.9101 14.082C75.8476 14.082 77.4111 14.4365 78.6006 15.1434V18.4433C77.9484 17.9266 77.1185 17.4964 76.1115 17.1522C75.1044 16.808 74.1207 16.6355 73.1615 16.6355C71.3007 16.6355 69.7754 17.2913 68.5859 18.6007C67.3964 19.9109 66.8016 21.6089 66.8016 23.694C66.8016 25.9135 67.4586 27.7397 68.7725 29.1745C70.0865 30.6094 71.7799 31.3265 73.852 31.3265C75.732 31.3265 77.5068 30.5903 79.1762 29.1173V32.4172C77.6797 33.4117 75.6944 33.9093 73.219 33.9093H73.2196Z" fill="white"/>
<path d="M97.8524 29.232C98.6769 31.2599 99.4063 32.7234 100.039 33.6219H95.6654C95.6654 32.7998 95.4063 31.6805 94.8881 30.2647L94.2551 28.5722H86.3699L85.7656 30.2075C85.2282 31.6614 84.9596 32.7998 84.9596 33.6219H80.9883C81.6979 32.6655 82.4561 31.1924 83.2614 29.2027L87.6935 18.0692C88.1344 16.9411 88.4126 16.1422 88.5282 15.6732C88.643 15.2049 88.6526 14.7789 88.5569 14.3965H91.7803L97.8524 29.2313V29.232ZM87.2334 26.2477H93.3629L90.7152 19.2465C90.4848 18.6343 90.3412 18.1844 90.2838 17.8981C90.0342 18.6439 89.8811 19.0938 89.823 19.2465L87.2334 26.2477Z" fill="white"/>
<path d="M109.854 31.2974C111.542 31.2974 113.086 31.0104 114.487 30.4365L114.026 33.6212H102.572C102.841 32.8564 102.975 31.6607 102.975 30.0343V17.9547C102.975 16.3481 102.84 15.162 102.572 14.3965H106.544C106.275 15.162 106.141 16.3474 106.141 17.9547V31.2974H109.853H109.854Z" fill="white"/>
<path d="M124.963 31.2974C126.612 31.2974 128.138 31.0104 129.538 30.4365L129.078 33.6212H117.25C117.519 32.8564 117.653 31.6607 117.653 30.0343V17.9547C117.653 16.3481 117.518 15.162 117.25 14.3965H128.761V17.438C127.553 16.9411 126.046 16.6923 124.243 16.6923H120.819V22.1442H127.15V24.956C126.267 24.6118 124.981 24.4393 123.293 24.4393H120.819V31.2974H124.963Z" fill="white"/>
<path d="M138.546 14.3965C141.922 14.3965 144.54 15.1811 146.402 16.7496C148.263 18.318 149.193 20.6425 149.193 23.7222C149.193 26.9553 148.176 29.4324 146.143 31.1536C144.205 32.7991 141.394 33.6212 137.711 33.6212H132.416C132.685 32.8564 132.819 31.6607 132.819 30.0343V17.9547C132.819 16.3481 132.684 15.162 132.416 14.3965H138.546ZM137.625 31.326C143.15 31.326 145.913 28.9634 145.913 24.2389C145.913 19.1885 142.929 16.6637 136.963 16.6637H135.985V31.326H137.625Z" fill="white"/>
<path d="M161.797 33.9093C158.881 33.9093 156.531 33.0341 154.747 31.2836C152.962 29.5331 152.07 27.2046 152.07 24.2966C152.07 21.3887 153.015 18.8161 154.905 16.9225C156.794 15.0288 159.255 14.082 162.286 14.082C165.317 14.082 167.543 14.962 169.308 16.7221C171.073 18.4821 171.955 20.8256 171.955 23.752C171.955 26.6783 171.02 29.1991 169.15 31.0832C167.279 32.9673 164.828 33.9093 161.797 33.9093ZM162.402 31.3265C164.262 31.3265 165.773 30.6715 166.934 29.3613C168.095 28.0512 168.675 26.4111 168.675 24.4405C168.675 22.1835 168.018 20.3185 166.704 18.8454C165.39 17.3724 163.707 16.6362 161.654 16.6362C159.773 16.6362 158.253 17.2865 157.092 18.5871C155.932 19.8884 155.351 21.5427 155.351 23.5509C155.351 25.7888 156.008 27.6449 157.322 29.1173C158.636 30.5903 160.329 31.3265 162.402 31.3265Z" fill="white"/>
<path d="M188.85 14.3965H192.533C192.265 15.162 192.131 16.3474 192.131 17.9547V33.6219H189.829L179.642 20.7959C179.315 20.3753 179.066 19.9922 178.894 19.6479C178.932 19.954 178.952 20.365 178.952 20.8817V30.035C178.952 31.6614 179.085 32.857 179.354 33.6219H175.671C175.939 32.857 176.073 31.6614 176.073 30.035V16.8354L174.289 14.4251V14.3965H178.491L188.39 26.8783C188.678 27.2416 188.985 27.6915 189.311 28.2266C189.272 27.6915 189.253 27.2034 189.253 26.7631V17.9547C189.253 16.3481 189.119 15.162 188.851 14.3965H188.85Z" fill="white"/>
<path d="M196.445 33.6219C196.714 32.857 196.848 31.6614 196.848 30.035V17.9547C196.848 16.3481 196.713 15.162 196.445 14.3965H200.417C200.148 15.162 200.014 16.3474 200.014 17.9547V30.035C200.014 31.6614 200.148 32.857 200.417 33.6219H196.445Z" fill="white"/>
<path d="M219.815 29.232C220.64 31.2599 221.369 32.7234 222.002 33.6219H217.628C217.628 32.7998 217.369 31.6805 216.851 30.2647L216.218 28.5722H208.333L207.728 30.2075C207.191 31.6614 206.922 32.7998 206.922 33.6219H202.951C203.661 32.6655 204.419 31.1924 205.224 29.2027L209.656 18.0692C210.097 16.9411 210.376 16.1422 210.491 15.6732C210.606 15.2049 210.615 14.7789 210.52 14.3965H213.743L219.815 29.2313V29.232ZM209.196 26.2477H215.326L212.678 19.2465C212.448 18.6343 212.304 18.1844 212.247 17.8981C211.997 18.6439 211.844 19.0938 211.786 19.2465L209.196 26.2477Z" fill="white"/>
<path d="M65.7276 47.0016C65.6941 47.3015 65.6435 47.5442 65.5792 47.7262L65.5156 47.9075H67.9378L67.8742 47.7262C67.8099 47.5442 67.7593 47.3015 67.7258 47.0023C67.6923 46.7023 67.6753 46.3452 67.6753 45.9321V39.7365C67.6753 39.3282 67.6923 38.9751 67.7258 38.6772C67.7593 38.38 67.8099 38.1387 67.8742 37.9567L67.9378 37.7754H65.5156L65.5792 37.9567C65.6435 38.1387 65.6941 38.38 65.7276 38.6779C65.7611 38.9751 65.7781 39.3289 65.7781 39.7365V45.9321C65.7781 46.3452 65.7611 46.7023 65.7276 47.0023V47.0016Z" fill="white"/>
<path d="M72.8202 47.0003C72.7867 46.7004 72.7696 46.3432 72.7696 45.9301V41.2356C72.7696 41.1987 72.7696 41.1626 72.7696 41.1279C72.8045 41.1763 72.8407 41.2253 72.8797 41.2751L78.1465 47.9062H79.5302V39.7346C79.5302 39.3262 79.5473 38.9731 79.5808 38.6753C79.6143 38.3781 79.6649 38.1368 79.7291 37.9548L79.7927 37.7734H77.5182L77.5818 37.9548C77.6461 38.1368 77.6966 38.3781 77.7301 38.6759C77.7636 38.9731 77.7807 39.3269 77.7807 39.7346V44.2526C77.7807 44.3323 77.7821 44.4162 77.7848 44.502C77.7158 44.4025 77.6481 44.3105 77.5818 44.2273L72.4634 37.7734H70.1055V37.9691L71.0202 39.2056V45.9301C71.0202 46.3432 71.0031 46.7004 70.9696 47.0003C70.9361 47.3002 70.8855 47.5429 70.8212 47.7249L70.7577 47.9062H73.0321L72.9686 47.7249C72.9043 47.5429 72.8537 47.3002 72.8202 47.001V47.0003Z" fill="white"/>
<path d="M82.9716 40.2124L86.0466 47.9069H87.7537L90.7836 39.9752C91.1158 39.1074 91.433 38.4421 91.7297 37.9848L91.8658 37.7741H89.5742V37.9105C89.5742 38.0366 89.5414 38.2404 89.4717 38.5089C89.4019 38.7782 89.296 39.1136 89.1538 39.513L87.3373 44.7106C87.2088 45.0944 87.1062 45.4086 87.0297 45.6561C86.9237 45.3493 86.7979 44.9942 86.6509 44.5893L84.8058 39.6139C84.6595 39.2199 84.5501 38.8791 84.4783 38.5941C84.4059 38.3092 84.3717 38.0788 84.3717 37.9098V37.7734H81.6973L81.8511 37.9888C82.2045 38.4844 82.5805 39.2267 82.9716 40.2117V40.2124Z" fill="white"/>
<path d="M93.9919 47.0016C93.9584 47.3015 93.9078 47.5442 93.8436 47.7262L93.78 47.9075H100.158L100.445 45.9212L100.223 46.0118C99.5226 46.2988 98.7589 46.4433 97.9283 46.4433H95.9396V43.1986H97.0724C97.9283 43.1986 98.5751 43.2872 99.0003 43.4543L99.1869 43.5272V41.7488H95.9396V39.2253H97.5592C98.4711 39.2253 99.2266 39.3514 99.8241 39.5975L100.013 39.6752V37.7754H93.7793L93.8429 37.9567C93.9071 38.1387 93.9577 38.38 93.9912 38.6779C94.0247 38.9751 94.0418 39.3289 94.0418 39.7372V45.9327C94.0418 46.3458 94.0247 46.703 93.9912 47.0029L93.9919 47.0016Z" fill="white"/>
<path d="M105.413 48.0555C105.956 48.0555 106.447 47.9894 106.885 47.8545C107.323 47.7202 107.709 47.5164 108.039 47.2444C108.368 46.9724 108.619 46.6466 108.785 46.271C108.951 45.8954 109.033 45.4728 109.033 45.0051C109.033 44.3739 108.869 43.8259 108.534 43.3787C108.208 42.9411 107.808 42.6064 107.34 42.3808C106.89 42.164 106.442 41.9643 105.997 41.7816C105.565 41.605 105.2 41.3862 104.897 41.1272C104.752 41.0025 104.647 40.8689 104.577 40.7244C104.508 40.5798 104.473 40.4244 104.473 40.252C104.473 40.0672 104.506 39.9111 104.57 39.7769C104.634 39.6432 104.729 39.5308 104.859 39.4347C105.126 39.2397 105.473 39.1375 105.915 39.1375C106.319 39.1375 106.74 39.2193 107.179 39.3863C107.622 39.554 107.993 39.7564 108.295 39.9916L108.516 40.1634V38.1232L108.442 38.085C107.828 37.7687 107.097 37.6133 106.254 37.6133C105.716 37.6133 105.227 37.6767 104.785 37.8048C104.344 37.933 103.951 38.1259 103.61 38.3842C103.268 38.6433 103.006 38.9561 102.834 39.3188C102.66 39.6814 102.575 40.0925 102.575 40.5458C102.575 41.0475 102.691 41.4967 102.927 41.8825C103.159 42.2622 103.454 42.558 103.81 42.7611C104.147 42.954 104.514 43.147 104.91 43.3392C105.305 43.5307 105.67 43.7032 106.006 43.8559C106.323 44.0004 106.583 44.1981 106.79 44.451C106.992 44.6977 107.091 44.9786 107.092 45.3139C107.092 45.515 107.058 45.6868 106.996 45.8327C106.933 45.9785 106.841 46.0992 106.715 46.2014C106.587 46.3044 106.434 46.3828 106.253 46.4359C106.071 46.4891 105.861 46.5171 105.62 46.5171C105.148 46.5171 104.644 46.4134 104.106 46.2028C103.566 45.9915 103.108 45.7243 102.728 45.4019L102.502 45.211V47.2669L102.557 47.3078C102.806 47.4905 103.18 47.654 103.69 47.8142C104.207 47.9758 104.782 48.0562 105.414 48.0562L105.413 48.0555Z" fill="white"/>
<path d="M113.746 39.2233V45.9301C113.746 46.3432 113.729 46.7004 113.696 47.0003C113.662 47.3002 113.612 47.5429 113.547 47.7249L113.484 47.9062H115.927L115.855 47.7208C115.788 47.545 115.733 47.3057 115.697 47.0064C115.661 46.7072 115.643 46.348 115.643 45.9301V39.2233H116.333C117.245 39.2233 118 39.3494 118.597 39.5955L118.786 39.6732V37.7734H110.602V39.6732L110.79 39.5955C111.388 39.3494 112.143 39.2233 113.055 39.2233H113.745H113.746Z" fill="white"/>
<path d="M129.615 40.8068L129.617 40.8048C129.654 40.7434 129.688 40.6848 129.721 40.6282C129.718 40.7298 129.717 40.8245 129.717 40.9111V45.9294C129.717 46.3425 129.699 46.6997 129.666 46.9996C129.632 47.2996 129.582 47.5422 129.518 47.7242L129.454 47.9055H131.729L131.665 47.7242C131.601 47.5422 131.55 47.2996 131.517 47.0003C131.483 46.7004 131.466 46.3432 131.466 45.9301V39.7346C131.466 39.3262 131.483 38.9731 131.517 38.6753C131.55 38.3781 131.601 38.1368 131.665 37.9548L131.729 37.7734H129.422L129.408 37.8934C129.405 37.9166 129.393 37.9629 129.369 38.0236C129.334 38.1149 129.274 38.2397 129.19 38.3931C129.106 38.5464 128.998 38.7298 128.866 38.9418L127.047 41.832L127.051 41.8259C126.818 42.194 126.613 42.5348 126.432 42.8518C126.27 42.558 126.057 42.2028 125.792 41.7816L123.242 37.7741H121.012L121.075 37.9554C121.14 38.1374 121.19 38.3787 121.224 38.6766C121.257 38.9738 121.274 39.3276 121.274 39.7352V45.9308C121.274 46.3439 121.257 46.7011 121.224 47.001C121.19 47.3009 121.14 47.5436 121.075 47.7256L121.012 47.9069H123.286L123.223 47.7256C123.158 47.5436 123.108 47.3009 123.074 47.0017C123.041 46.7017 123.024 46.3446 123.024 45.9315V41.2219C123.024 41.0536 123.02 40.8886 123.015 40.7257C123.035 40.7611 123.057 40.7979 123.079 40.8354V40.8368L126.266 45.832H126.446L129.615 40.8082V40.8068Z" fill="white"/>
<path d="M134.596 47.0016C134.563 47.3015 134.512 47.5442 134.448 47.7262L134.384 47.9075H140.761L141.048 45.9212L140.827 46.0118C140.126 46.2988 139.362 46.4433 138.532 46.4433H136.543V43.1986H137.676C138.532 43.1986 139.179 43.2872 139.604 43.4543L139.79 43.5272V41.7488H136.543V39.2253H138.163C139.075 39.2253 139.83 39.3514 140.428 39.5975L140.616 39.6752V37.7754H134.383L134.446 37.9567C134.511 38.1387 134.561 38.38 134.595 38.6779C134.628 38.9751 134.645 39.3289 134.645 39.7365V45.9321C134.645 46.3452 134.628 46.7023 134.595 47.0023L134.596 47.0016Z" fill="white"/>
<path d="M145.512 47.0003C145.478 46.7004 145.461 46.3432 145.461 45.9301V41.2356C145.461 41.1987 145.461 41.1626 145.461 41.1279C145.496 41.1763 145.532 41.2253 145.571 41.2751L150.838 47.9062H152.222V39.7346C152.222 39.3262 152.239 38.9731 152.272 38.6753C152.306 38.3781 152.356 38.1368 152.421 37.9548L152.484 37.7734H150.21L150.273 37.9548C150.337 38.1368 150.388 38.3781 150.422 38.6759C150.455 38.9731 150.472 39.3269 150.472 39.7346V44.2526C150.472 44.3323 150.474 44.4162 150.476 44.502C150.407 44.4025 150.34 44.3105 150.273 44.2273L145.155 37.7734H142.797V37.9691L143.712 39.2049V45.9294C143.712 46.3425 143.694 46.6997 143.661 46.9996C143.628 47.2996 143.577 47.5422 143.513 47.7242L143.449 47.9055H145.724L145.66 47.7242C145.596 47.5422 145.545 47.2996 145.512 47.0003Z" fill="white"/>
<path d="M157.848 39.2233V45.9301C157.848 46.3432 157.831 46.7004 157.797 47.0003C157.764 47.3002 157.713 47.5429 157.649 47.7249L157.585 47.9062H160.029L159.957 47.7208C159.889 47.545 159.835 47.3057 159.799 47.0064C159.763 46.7072 159.744 46.348 159.744 45.9301V39.2233H160.434C161.346 39.2233 162.102 39.3494 162.699 39.5955L162.888 39.6732V37.7734H154.703V39.6732L154.892 39.5955C155.489 39.3494 156.244 39.2233 157.157 39.2233H157.847H157.848Z" fill="white"/>
<path d="M169.638 42.3808C169.188 42.164 168.741 41.9643 168.295 41.7816C167.863 41.605 167.498 41.3862 167.196 41.1272C167.05 41.0025 166.945 40.8689 166.876 40.7244C166.806 40.5798 166.771 40.4244 166.771 40.252C166.771 40.0672 166.805 39.9111 166.869 39.7769C166.933 39.6432 167.027 39.5308 167.158 39.4347C167.425 39.2397 167.772 39.1375 168.214 39.1375C168.618 39.1375 169.039 39.2193 169.478 39.3863C169.921 39.554 170.292 39.7564 170.594 39.9916L170.815 40.1634V38.1232L170.741 38.085C170.127 37.7687 169.396 37.6133 168.553 37.6133C168.015 37.6133 167.526 37.6767 167.084 37.8048C166.643 37.933 166.25 38.1259 165.909 38.3842C165.566 38.6433 165.305 38.9561 165.132 39.3188C164.959 39.6814 164.874 40.0925 164.874 40.5458C164.874 41.0475 164.99 41.4967 165.226 41.8825C165.458 42.2622 165.752 42.558 166.109 42.7611C166.446 42.954 166.813 43.147 167.209 43.3392C167.604 43.5307 167.969 43.7032 168.304 43.8559C168.622 44.0004 168.881 44.1981 169.089 44.451C169.291 44.6977 169.389 44.9786 169.391 45.3139C169.391 45.515 169.357 45.6868 169.295 45.8327C169.232 45.9785 169.14 46.0992 169.013 46.2014C168.886 46.3044 168.734 46.3828 168.552 46.4359C168.37 46.4891 168.16 46.5171 167.919 46.5171C167.447 46.5171 166.943 46.4134 166.405 46.2028C165.865 45.9915 165.406 45.7243 165.026 45.4019L164.801 45.211V47.2669L164.856 47.3078C165.105 47.4905 165.479 47.654 165.989 47.8142C166.506 47.9758 167.081 48.0562 167.712 48.0562C168.255 48.0562 168.746 47.9901 169.184 47.8551C169.623 47.7209 170.009 47.517 170.338 47.2451C170.668 46.9731 170.919 46.6472 171.085 46.2717C171.251 45.8961 171.333 45.4734 171.333 45.0058C171.333 44.3746 171.168 43.8266 170.834 43.3794C170.507 42.9418 170.108 42.6071 169.64 42.3815L169.638 42.3808Z" fill="white"/>
<g class="icon" clip-path="url(#clip0_484_553)">
<path d="M26.6376 4.98231L26.4342 5.22417C26.2925 5.38983 26.1458 5.54058 26.0041 5.70459C24.5054 7.34463 27.7845 9.21493 29.0382 7.52023C29.1249 7.40592 29.2649 7.338 29.4066 7.37444C29.48 7.3877 29.535 7.43574 29.5583 7.53845L29.565 7.54507L29.7417 8.14974L29.7534 8.17293L29.7717 8.26404V8.27067C29.8084 8.4413 29.8417 8.61856 29.8384 8.78753C29.8267 9.34746 29.8367 9.39716 29.6283 9.93059L29.5783 10.0283C29.4133 10.3514 29.1432 10.6115 28.8165 10.7688L28.5847 10.691L28.5414 10.6777H28.5347C28.2413 10.5866 27.9412 10.5187 27.6412 10.4806C27.3344 10.4441 27.0293 10.4309 26.7276 10.4491C26.4959 10.459 26.2625 10.4839 26.0357 10.5319L25.9957 12.5712L29.3766 12.5132L28.8348 13.5701C29.49 13.4012 30.0068 13.1659 30.4169 12.886C30.7236 12.6723 30.9704 12.4437 31.1787 12.2051C31.2521 12.114 31.3188 12.0229 31.3805 11.9318C31.5588 11.6766 31.6939 11.4083 31.8006 11.1465C31.9039 10.8864 31.9723 10.6247 32.0223 10.3812C32.109 9.91899 32.0773 10.0747 32.189 9.6705C32.5508 9.90242 32.7392 10.2487 32.8909 10.6694C33.1593 11.4066 33.2476 12.3757 33.9828 12.6756C33.346 12.601 32.7592 12.1985 32.4657 11.6369C31.7872 13.5519 30.1818 14.1317 28.233 14.415L27.5461 14.5161L28.173 13.2885L25.9507 13.2405L25.0488 14.8756C25.2155 14.9385 25.3856 15.0048 25.5606 15.0727C25.7307 15.139 25.9057 15.2069 26.0824 15.2765C26.7459 15.5365 27.4578 15.8215 28.198 16.1279L28.328 16.1793H28.3313C28.4014 16.1329 28.473 16.0898 28.5481 16.0517C28.7915 15.9242 29.0615 15.8347 29.3499 15.79C30.7586 15.568 32.084 16.5139 32.324 17.9071L32.4507 17.9651C33.1426 18.2799 33.8361 18.6062 34.5196 18.9392C35.0547 19.1993 35.5849 19.4643 36.1067 19.7344C36.5635 18.9011 37.392 17.5079 37.7338 16.6928C38.4973 14.8722 38.2122 14.6138 37.6171 13.2405C37.4887 12.9456 37.1936 12.5729 37.1136 12.4453C38.4056 13.0864 38.8707 13.4095 38.9591 14.743L40.6279 8.31374C40.8879 7.08951 40.2711 5.82883 39.0341 5.62507C38.704 5.56874 37.9988 5.61016 37.7121 5.59691C37.5771 5.59194 37.5587 5.40805 37.6821 5.37161C38.2089 5.22086 39.2208 5.09496 39.7043 4.85972C40.2928 4.56816 40.7412 4.0281 41.1163 3.46817C41.2697 3.23624 41.093 2.93806 40.8179 2.95628C38.8374 3.07224 38.9758 2.09484 39.3709 1.34109C39.5042 1.07934 39.2292 0.797722 38.9541 0.900431C36.2501 1.92421 35.7549 1.42392 35.7549 1.42392C35.6566 1.3063 35.6082 1.16052 35.6016 1.01474L35.5249 0.149989C35.5132 0.0340266 35.3898 -0.0322377 35.2848 0.0158039L32.6991 1.27648L32.324 1.37256L28.9465 2.11307C28.8732 2.13129 28.7998 2.13792 28.7198 2.14951C28.2363 2.20418 27.7945 2.45267 27.4795 2.82872C27.0944 3.1882 26.4509 3.23956 25.8024 3.52946C25.624 3.60898 25.4389 3.70009 25.4506 3.89392V3.91877C25.6323 4.94255 26.5992 5.00053 26.6376 4.98231ZM30.4519 3.36049L30.5052 3.32239C30.8587 3.09709 31.4038 3.09046 31.7906 3.24287C32.4741 3.551 31.6205 4.15566 31.0937 4.32132C30.5069 4.5168 29.8534 3.80777 30.4519 3.36049Z" fill="white"/>
<path d="M38.1871 22.2248L38.1738 22.2149L38.3272 22.036L39.7392 20.3992L38.3455 19.4749L36.9952 21.4992C35.8499 20.8084 34.5662 20.1309 33.2492 19.4881C32.699 19.2197 32.1439 18.9596 31.5871 18.7062L31.4854 18.6598C31.2937 17.5399 30.2301 16.7812 29.0981 16.9601C28.7947 17.0065 28.5196 17.1158 28.2812 17.2716H28.2779L28.1745 17.2302C27.5811 16.985 27.0092 16.7564 26.4774 16.5476C25.5922 16.1997 24.807 15.9032 24.1768 15.6696C23.7334 15.5056 23.365 15.3714 23.0916 15.2754L23.9935 12.9694L22.4014 12.5254L21.8429 14.5133L21.6979 15.0318L20.7793 18.355C26.4524 19.1568 31.5954 21.544 35.7515 25.0427L38.1888 22.2232L38.1871 22.2248Z" fill="white"/>
<path d="M9.6646 14.3286C10.2664 14.4892 10.5648 16.2817 10.5648 16.2817L10.5765 16.3148C10.7082 16.7058 10.8066 17.1067 10.8632 17.5142V17.5192C10.8849 17.7097 10.9066 17.8787 10.9233 18.0162C11.035 18.7964 11.185 19.5916 11.4084 20.3139C11.6318 21.0428 11.9269 21.7004 12.3203 22.2107C12.577 22.5553 12.8788 22.8336 13.2289 23.044C13.7023 23.3289 14.2625 23.4912 14.9976 23.4879C15.0677 23.4846 15.1427 23.483 15.2177 23.4796C16.163 23.4233 18.3485 23.3902 18.3652 22.05C18.3719 21.3824 17.5666 20.733 17.1282 20.3056L17.1232 20.294L17.0615 20.2393C16.9998 20.1797 16.9331 20.1134 16.8731 20.0472C16.5697 19.7241 16.308 19.3564 16.1113 18.9621C15.9946 18.7152 15.9062 18.4933 15.8512 18.2829C15.7962 18.0725 15.7695 17.8869 15.7662 17.7097V17.6981C15.7662 17.554 15.7845 17.4181 15.8145 17.2922C15.5261 17.1133 15.1277 16.8433 14.5842 16.4175C14.2425 16.1492 13.9657 15.8394 13.749 15.5064C13.5306 15.18 13.4139 14.8272 13.2905 14.4876C13.1355 13.7835 12.8788 12.6935 13.3939 12.1037C13.8424 11.6183 14.6292 11.0236 15.0093 10.3891C15.3494 9.85737 15.4628 9.08374 15.3811 8.51718C15.2327 7.28301 14.6992 8.30182 14.2258 8.74745C13.8323 9.14172 13.2355 9.45979 12.7054 9.18645C11.9969 8.79715 12.1669 7.52487 11.4734 6.47624C11.0433 5.81194 10.2881 5.03334 9.5079 4.91406C9.31785 4.91738 9.30118 5.08635 9.4012 5.39945C9.58625 5.96435 9.95301 6.79265 10.0497 7.45198C10.1364 8.0086 10.1114 8.85016 9.51123 9.06552C9.01443 9.1732 8.29758 8.58344 7.16062 8.26041C6.81553 8.08315 4.52494 7.74851 5.42351 8.47245C7.67242 9.69171 9.72295 12.7266 5.50853 13.4058C4.87336 13.4787 4.71499 13.6311 5.09342 14.0221C6.36208 15.1618 8.44929 14.1911 9.66794 14.3269L9.6646 14.3286Z" fill="white"/>
<path d="M44.2838 45.8303C44.2838 45.822 44.2838 45.8137 44.2838 45.8087C44.2838 45.8004 44.2838 45.7938 44.2838 45.7855C44.2037 43.9633 43.717 42.2487 42.8867 40.5556C41.8431 38.4385 40.5595 36.4323 39.4142 34.2937C39.2991 34.08 39.1858 33.8679 39.0741 33.6426V33.636L38.4172 32.1384L37.8154 32.2361C37.1803 32.3405 36.5434 32.3604 35.9133 32.3024C33.2626 32.0639 31.3171 30.5779 30.5202 28.0847C30.2001 28.426 29.9517 28.8086 29.6733 29.1814C29.6066 29.2775 29.5416 29.3653 29.4899 29.4514C29.3832 29.6386 29.2832 29.8208 29.2232 30.0097C29.1582 30.1886 29.1248 30.3692 29.1048 30.5564C29.0765 30.886 29.1282 31.2091 29.2599 31.5238C29.3866 31.8369 29.6016 32.1235 29.91 32.4035L30.5869 33.0048L29.7 32.7928C29.3766 32.7066 28.9665 32.5758 28.6214 32.4598C28.0546 32.2792 27.5578 32.0175 27.136 31.7027C26.7309 31.4012 26.3991 31.0517 26.1257 30.6723C25.9757 30.4752 25.849 30.2664 25.729 30.0511C25.4022 29.4415 25.1988 28.802 25.0755 28.2007C24.9288 27.4966 24.8854 26.8422 24.8954 26.3188C23.6184 27.1172 22.7282 27.972 22.1197 28.6976C21.3828 29.5872 21.2445 29.9268 21.1828 30.0677L20.7827 30.7634L20.5443 30.1836C20.2392 29.4696 20.1008 28.8136 19.9975 28.2222C19.8925 27.6242 19.8741 27.0841 19.9175 26.5921V26.5855C19.9641 26.0935 20.0742 25.6578 20.2292 25.2734C19.7341 25.4109 18.6121 25.7539 18.1837 25.7522C17.8353 26.2657 17.3601 26.7346 16.795 27.1736C16.0465 27.7401 15.2796 28.262 14.2827 28.7473C13.8326 28.9693 13.3558 29.1797 12.8673 29.3901L12.829 29.41C7.00079 31.6779 1.44936 32.0539 0.169025 32.3803C-0.359445 32.8143 0.537454 32.9104 0.85587 32.9899C1.68108 33.1373 2.44461 33.9077 2.12953 34.9298C2.15454 35.3406 0.785851 36.989 1.77944 36.6858C1.88113 36.6262 1.98449 36.5649 2.08785 36.5069C2.10953 36.5019 2.13287 36.4969 2.15954 36.4887C2.33959 36.381 2.52297 36.2766 2.70968 36.1772C4.43346 35.3224 6.24726 35.0159 7.1725 37.3617C7.31254 37.6731 7.41923 37.8388 7.6693 37.7659C7.90936 37.6267 8.0694 37.413 8.22111 37.1778C8.35114 37.0105 8.4595 36.8183 8.58453 36.6278C8.64455 36.55 8.7079 36.4721 8.77958 36.3992C9.2347 35.889 9.69649 35.5726 10.0482 35.4632C10.7884 35.2893 11.6787 35.5842 12.3055 35.8459C12.7356 36.0646 12.7823 35.7465 12.7423 35.3754C12.7356 35.1501 12.6723 34.8702 12.6389 34.6796C12.6156 34.5653 12.6039 34.4527 12.5956 34.3384C12.5956 34.3351 12.5956 34.3301 12.5956 34.3268C12.5822 33.3792 13.8025 32.8027 14.7411 32.6387C14.8011 32.6288 14.8545 32.6205 14.8995 32.6105H14.9295C16.1081 32.5575 16.6733 32.5227 17.8536 32.5575C21.1394 32.6503 23.6468 32.3687 24.4536 32.2627C24.6787 32.2328 24.8988 32.3521 24.9888 32.5575C24.9888 32.5575 24.9904 32.5608 24.9904 32.5625C25.0521 32.7215 24.9504 32.912 24.8221 32.9651C23.7751 33.4024 19.7741 33.626 17.5769 33.4538L18.5221 34.7327C18.7288 35.0308 18.9872 35.3373 19.1273 35.5146C21.6896 38.8328 27.0693 42.3348 30.8603 45.7325C31.052 45.9263 31.2387 46.1268 31.4138 46.3339C31.4721 46.3952 31.6122 46.5476 31.7989 46.7712C32.339 47.4156 32.5107 48.0915 32.5191 48.8701C32.5257 49.5361 32.314 50.1938 31.8689 50.694C31.4671 51.1463 30.9136 51.4544 30.2651 51.4809C27.7945 51.4992 27.3294 48.5868 27.4344 46.5973C27.4744 46.1831 27.5261 45.5056 27.6061 45.1842C26.3791 44.2797 25.3255 43.4663 24.1669 42.4988C23.8635 42.9859 23.4834 43.617 23.2883 44.0428C23.0216 44.6458 22.8099 45.2852 22.5381 46.2013C22.3564 46.8574 22.2281 47.52 22.1714 48.1743C21.9663 50.3014 22.4398 52.3871 23.5084 54.1149C24.5603 55.8527 26.1891 57.39 28.3596 58.1156C29.0248 58.3426 29.655 58.6723 30.3552 58.7932C30.3768 58.7965 30.3985 58.8015 30.4218 58.8048C32.0439 59.0881 33.7094 59.0881 35.3231 58.7501C44.3371 56.8649 44.3071 46.7397 44.2871 45.8568C44.2871 45.8518 44.2871 45.8468 44.2871 45.8402L44.2838 45.8303Z" fill="white"/>
<path d="M45.6797 43.4648C45.6797 43.4648 45.683 43.4795 45.683 43.4877C45.6813 43.473 45.6797 43.4648 45.6797 43.4648Z" fill="white"/>
<path d="M22.7454 8.23413C22.9738 9.34571 24.2092 9.84601 25.5195 9.69857C25.6045 9.68863 25.6995 9.67869 25.7962 9.67206C26.1513 9.65384 26.5781 9.67206 27.0632 9.76152C27.6884 9.8692 28.1352 10.0216 28.4536 10.1459C28.6086 10.2055 28.7337 10.2552 28.822 10.2883L28.9337 10.3248C29.7939 9.34737 29.3038 8.58367 29.3038 8.58367L29.2271 8.60355C28.912 8.68307 28.582 8.73111 28.2485 8.74933C28.1819 8.75265 28.1152 8.75596 28.0485 8.7543C26.3897 8.77418 24.7543 8.98623 23.1889 7.81666L23.0872 7.7388L22.9572 7.70898C22.8121 7.71727 22.7038 7.81666 22.7071 7.93594L22.7171 7.99226L22.7454 8.23579V8.23413Z" fill="white"/>
<path d="M57.8991 28.5113C57.2239 28.054 56.232 28.4798 55.7102 27.9994C55.2234 27.5521 55.4551 25.816 55.5168 25.2279C55.5285 25.1119 55.5451 25.0026 55.5701 24.8999C55.6785 24.4426 55.8752 24.0517 56.0719 23.7088C56.2687 23.3659 56.467 23.0693 56.5854 22.8142C56.6404 22.6949 56.6771 22.5458 56.6938 22.3885C56.7154 22.188 56.7054 21.9726 56.6888 21.7871L56.6321 21.8733C56.5587 21.9776 56.4787 22.0853 56.387 22.1781C56.3187 22.2443 56.2403 22.2924 56.1486 22.3421C55.9886 22.4266 55.7819 22.5077 55.5501 22.5939C55.1984 22.7231 54.7866 22.8589 54.3932 23.008C53.4146 23.3758 52.9945 23.8231 52.3276 24.6431C52.266 24.7193 52.1709 24.769 52.0742 24.7607C51.8792 24.7425 51.8458 24.5387 51.8392 24.3731C51.8242 24.0252 51.7658 23.1339 51.7508 22.786C49.8387 23.6806 49.732 24.8949 49.6519 25.2792C49.5336 25.8474 49.3219 26.9077 48.8834 27.2788C49.5619 27.6846 50.2921 28.006 51.0456 28.2396C51.5774 28.4781 51.2574 29.2485 50.7122 29.048C49.6253 28.6239 48.62 28.0259 47.7314 27.2771C47.1246 26.7619 46.5611 26.1953 46.0844 25.5575C46.0844 25.5575 46.0844 25.5542 46.081 25.5542C45.5125 24.9015 45.0474 24.2654 44.889 24.0186L44.844 23.949L44.794 23.9788C44.7057 24.0351 44.594 24.1229 44.4756 24.2289L44.4723 24.2323C44.1689 24.499 43.9421 24.8452 43.8338 25.2328C43.7954 25.372 43.7671 25.5128 43.7537 25.6553C43.6921 26.2467 43.8338 26.853 44.1789 27.3682L45.2491 28.9619L45.2525 28.9685C45.4542 29.3114 45.6026 29.7355 45.6976 30.148C45.7459 30.3551 45.7776 30.5588 45.7959 30.7493C45.8143 30.9415 45.8159 31.1188 45.8009 31.2745C45.7909 31.3689 45.7743 31.4551 45.7459 31.5362C45.7109 31.6373 45.6492 31.7185 45.5759 31.7913C45.4492 31.9189 45.2825 32.0266 45.0941 32.1276C44.814 32.28 44.4856 32.4142 44.1855 32.5203C44.0355 32.5733 43.8938 32.6197 43.7721 32.6561C43.6504 32.6925 43.5454 32.7207 43.4637 32.7373C43.4203 32.7472 43.3186 32.7704 43.1819 32.8035C42.6901 32.9278 41.8683 33.2061 40.9297 33.4595C40.9347 33.4695 40.9414 33.4811 40.9464 33.491C41.4398 34.4121 41.9583 35.3083 42.4734 36.1996C44.2555 35.3961 46.5561 34.3641 46.6828 34.972C46.7062 35.088 46.7229 35.2321 46.7345 35.4243C46.9462 38.8932 50.8723 36.0207 52.3893 42.821C53.4813 42.1153 54.1148 41.4378 54.3348 41.1744C54.9216 40.4703 55.1984 39.758 55.195 38.8385C55.1934 38.1776 54.3798 37.1124 55.045 36.5276C55.4951 36.1317 56.122 36.188 56.5837 36.4961C56.5337 36.2542 56.4254 36.0207 56.3087 35.7954C56.222 35.6264 56.132 35.4756 56.0703 35.3878C55.6252 34.7616 54.5632 34.7202 53.9014 34.3144C53.6763 34.1752 53.5163 33.9897 53.4446 33.7644C52.8661 34.0278 52.286 34.2613 51.6708 34.4502C51.2507 34.5761 50.7989 34.6871 50.3521 34.6871C50.2621 34.6821 50.1704 34.6805 50.0804 34.6672C49.8553 34.6241 49.707 34.4055 49.7503 34.1802C49.7936 33.9549 50.0137 33.8091 50.2388 33.8522C50.4055 33.887 50.6139 33.8787 50.8339 33.8555C51.6625 33.7478 52.4793 33.4745 53.2662 33.1812C53.568 33.0437 54.0681 32.8151 54.5315 32.6014C55.0367 32.3695 55.4935 32.0448 55.8702 31.6373C55.8702 31.6356 55.8736 31.634 55.8752 31.6323C56.0019 31.4948 56.132 31.3093 56.2553 31.1005C56.4404 30.7874 56.6087 30.428 56.7538 30.1033C56.8255 29.9426 56.8938 29.7885 56.9522 29.6543C57.0122 29.5201 57.0655 29.4075 57.1122 29.3164C57.2572 29.048 57.4906 28.8658 57.7007 28.7349C57.8091 28.6686 57.9124 28.6156 57.9991 28.5775L57.8991 28.5046V28.5113Z" fill="white"/>
<path d="M18.5824 20.6267C18.7758 20.7692 20.2028 21.9156 19.746 22.8085C19.1425 23.9962 17.4771 24.0294 16.1484 23.8952C16.7636 24.7218 17.9056 25.0283 18.9375 24.9124C18.9408 24.9124 18.9442 24.9124 18.9475 24.9124C19.486 24.8544 19.9978 24.6456 20.4462 24.3458C20.8713 24.0642 21.2681 23.7428 21.6082 23.3585C22.1367 22.7306 22.7485 21.8145 22.9902 21.841C23.0702 21.8625 23.0902 21.904 23.0902 22.005C22.9869 22.9377 22.2033 23.756 21.6015 24.4237C21.0097 25.84 20.7713 27.3973 20.9113 28.9263C21.4015 28.2521 21.9533 27.6325 22.5634 27.0676C22.5868 27.0378 22.6168 27.0113 22.6535 26.9831C23.5787 26.0455 24.784 25.0018 26.2077 24.3574C26.7112 24.1023 27.5964 23.4065 28.1449 23.6335C28.2866 23.7163 28.2482 23.8505 28.1415 23.9714C27.6081 24.4733 26.7762 24.8627 26.161 25.2221C25.7909 27.1769 26.3544 29.2957 27.6814 30.7817C27.8715 29.9667 28.0665 29.2527 28.5633 28.5271C28.9334 28.0036 29.4569 27.4967 30.2404 26.95C30.6972 26.6137 31.5257 25.9428 32.0409 25.8384C32.9294 25.7904 31.7591 26.8125 31.2257 27.0676C31.279 28.5387 32.416 29.9385 33.8197 30.5481C35.3067 31.2025 37.3489 31.3085 38.866 30.7834C37.709 30.0528 36.1753 29.4051 35.8819 27.881C35.7902 27.4337 35.8335 26.9616 35.6952 26.5275C35.6385 26.3519 35.5568 26.1896 35.4568 26.0388C35.4484 26.0272 35.4418 26.0157 35.4318 26.0024C31.3957 22.6229 26.4361 20.2921 20.9663 19.4356C20.8647 19.419 20.7596 19.4174 20.6579 19.4273C20.1578 19.4787 19.7127 19.4588 19.3826 19.3395C18.0573 18.8641 17.9222 17.4129 17.8772 16.1406C16.6919 16.4703 16.8503 17.5007 17.0387 18.4864C17.2204 19.4704 17.7705 20.032 18.5791 20.63L18.5824 20.6267Z" fill="white"/>
</g>
<defs>
<clipPath id="clip0_484_553">
<rect width="58" height="59" fill="white"/>
</clipPath>
</defs>
</svg> -->


<svg width="222" height="56" viewBox="0 0 222 56" fill="none" xmlns="http://www.w3.org/2000/svg">
<path d="M69.795 29.6602C71.0329 29.6602 72.1432 29.5364 73.125 29.2888C74.1068 29.0412 74.9686 28.6698 75.7123 28.1737V24.3145C75.3117 24.9051 74.8212 25.4107 74.2401 25.8293C73.6589 26.2489 73.0353 26.5626 72.3681 26.7724C71.701 26.9821 71.0537 27.087 70.4243 27.087C69.0334 27.087 67.8096 26.7582 66.7513 26.1005C65.6929 25.4428 64.8736 24.5375 64.2925 23.3847C63.7104 22.2318 63.4203 20.9316 63.4203 19.483C63.4203 18.3008 63.649 17.1773 64.1063 16.1094C64.5637 15.0426 65.2781 14.1657 66.2504 13.4796C67.2219 12.7936 68.4418 12.4506 69.9093 12.4506C70.6899 12.4506 71.4619 12.5555 72.2245 12.7652C72.9861 12.975 73.6722 13.2755 74.2826 13.6658C74.893 14.057 75.3693 14.5002 75.7123 14.9953V11.0501C75.1208 10.7071 74.3402 10.4312 73.3679 10.2214C72.3965 10.0116 71.4336 9.90674 70.481 9.90674C68.4985 9.90674 66.7258 10.3263 65.1637 11.1645C63.6008 12.0027 62.3771 13.1933 61.4907 14.7374C60.6043 16.2805 60.1611 18.0721 60.1611 20.1114C60.1611 21.9795 60.5514 23.6323 61.3329 25.0714C62.1144 26.5106 63.2294 27.6351 64.678 28.4449C66.1257 29.2557 67.8323 29.6602 69.795 29.6602Z" fill="white"/>
<path d="M82.3395 28.1012C82.349 27.4435 82.4964 26.7338 82.7827 25.9712L83.3827 24.3421H91.2155C92.0546 26.5911 92.5687 27.8971 92.7596 28.259C92.9694 28.6786 93.1461 28.9649 93.2887 29.117C93.4314 29.2701 93.627 29.3703 93.8746 29.4175V29.4147C94.1213 29.4619 94.5493 29.4865 95.1598 29.4865H97.3322C96.9325 29.1246 96.5082 28.5434 96.0603 27.743C95.6124 26.9427 95.1891 26.0279 94.7884 24.9989L88.7567 10.2197H84.7832C85.0128 10.4484 85.1838 10.7962 85.2982 11.263C85.4125 11.7298 85.3738 12.1824 85.1838 12.6209L80.2672 24.9705C79.447 26.9909 78.7043 28.4584 78.0371 29.3731H82.811C82.4869 29.1832 82.3301 28.7589 82.3395 28.1012ZM86.8139 15.0532L87.2712 13.7095C87.3289 14.0147 87.4716 14.4626 87.7003 15.0532L90.3301 22.0279H84.2408L86.8139 15.0532Z" fill="white"/>
<path d="M109.904 29.3727C110.361 29.3727 110.714 29.2867 110.961 29.1156C111.209 28.9437 111.395 28.611 111.519 28.1149C111.643 27.6198 111.723 26.8865 111.762 25.9141C111.38 26.2571 111.009 26.5104 110.647 26.672C110.285 26.8345 109.865 26.9394 109.389 26.9867C108.913 27.0348 108.217 27.0585 107.302 27.0585H103.357V13.7657C103.357 12.9843 103.447 12.2746 103.628 11.6358C103.809 10.9979 104.043 10.5264 104.329 10.2212H99.4404C99.688 10.5255 99.8789 10.9923 100.012 11.6216C100.145 12.251 100.212 12.9654 100.212 13.7657V25.8291C100.212 26.6295 100.145 27.3438 100.012 27.9732H100.013C99.8798 28.6006 99.689 29.0684 99.4414 29.3727H109.904Z" fill="white"/>
<path d="M115.123 13.7657V25.8291C115.123 26.6295 115.056 27.3438 114.922 27.9732H114.923C114.79 28.6016 114.599 29.0693 114.352 29.3736H125.157C125.614 29.3736 125.967 29.2876 126.215 29.1166C126.462 28.9446 126.648 28.612 126.772 28.1159C126.896 27.6207 126.976 26.8874 127.015 25.9151C126.633 26.2581 126.267 26.5113 125.914 26.6729C125.562 26.8355 125.142 26.9404 124.656 26.9876C124.17 27.0358 123.469 27.0594 122.555 27.0594H118.266V20.2274H120.725C121.43 20.2274 122.136 20.2699 122.841 20.3559C123.546 20.4409 124.118 20.5694 124.556 20.7414V17.9396H118.267V12.508H121.497C122.888 12.508 123.888 12.5798 124.498 12.7225C125.109 12.8652 125.661 13.1751 126.157 13.6514V10.2212H114.351C114.598 10.5255 114.789 10.9923 114.922 11.6216C115.056 12.251 115.123 12.9654 115.123 13.7657Z" fill="white"/>
<path d="M131.304 27.9874C131.171 28.6073 130.98 29.0703 130.732 29.3746H136.364C139.985 29.3746 142.791 28.5364 144.783 26.8591C146.774 25.1818 147.77 22.7334 147.77 19.512C147.77 16.2907 146.846 14.1286 144.998 12.5656C143.148 11.0027 140.547 10.2212 137.193 10.2212H130.732C130.98 10.5264 131.171 10.9885 131.304 11.6074C131.437 12.2273 131.504 12.9465 131.504 13.7657V25.8291C131.504 26.6484 131.437 27.3684 131.304 27.9874ZM134.649 12.4787H135.622C138.213 12.4787 140.343 13.0324 142.011 14.1371C143.677 15.2427 144.512 17.2054 144.512 20.0261C144.512 22.6181 143.754 24.4428 142.239 25.5002C140.723 26.5576 138.737 27.0868 136.278 27.0868H134.649V12.4787Z" fill="white"/>
<path d="M166.378 11.0917C164.929 10.3017 163.33 9.90576 161.347 9.90576C159.365 9.90576 157.602 10.3338 156.058 11.1919C154.514 12.0499 153.318 13.25 152.47 14.794C151.623 16.3381 151.198 18.1581 151.198 20.083C151.198 22.0079 151.599 23.6889 152.399 25.1281C153.2 26.5673 154.334 27.6823 155.801 28.4733C157.269 29.2633 158.86 29.6582 160.861 29.6582C162.863 29.6582 164.625 29.2302 166.15 28.3722C167.675 27.5151 168.856 26.3244 169.695 24.7993C170.533 23.275 170.953 21.4645 170.953 19.5396C170.953 17.6147 170.552 15.9233 169.752 14.4652C168.951 13.0071 167.826 11.8826 166.378 11.0917ZM166.906 23.7135C166.383 24.7624 165.649 25.5864 164.705 26.1865C163.761 26.7856 162.679 27.0861 161.46 27.0861C160.088 27.0861 158.873 26.7478 157.816 26.0712C156.757 25.3955 155.933 24.4704 155.343 23.2987C154.751 22.1269 154.456 20.8068 154.456 19.3393C154.456 18.0249 154.713 16.8427 155.228 15.7947C155.743 14.7468 156.476 13.9266 157.429 13.336C158.382 12.7454 159.478 12.4496 160.717 12.4496C162.051 12.4496 163.251 12.7879 164.319 13.4645C165.386 14.142 166.216 15.0709 166.806 16.2521C167.397 17.4343 167.693 18.7581 167.693 20.2257C167.693 21.5032 167.43 22.6655 166.906 23.7135Z" fill="white"/>
<path d="M187.766 11.6363C187.899 12.2561 187.966 12.9658 187.966 13.7662V22.542C187.966 22.8661 187.984 23.3528 188.023 24.0001C187.775 23.5805 187.47 23.1326 187.108 22.6564L177.303 10.2207H172.844V10.2491C173.397 10.5921 173.878 11.0835 174.288 11.7213C174.697 12.3601 174.902 12.9554 174.902 13.5082V25.8579C174.883 26.6583 174.806 27.3689 174.673 27.9878H174.672C174.538 28.6077 174.358 29.0707 174.129 29.375H178.531C178.284 29.0518 178.093 28.585 177.96 27.9746C177.826 27.3642 177.759 26.6592 177.759 25.8588V16.6823C177.759 16.2817 177.741 15.8725 177.703 15.4529C177.894 15.8347 178.141 16.2155 178.446 16.5963L188.538 29.375H190.824V13.7662C190.824 12.9658 190.892 12.2561 191.025 11.6363C191.158 11.0173 191.349 10.5458 191.596 10.2216H187.194C187.441 10.5458 187.632 11.0173 187.766 11.6363Z" fill="white"/>
<path d="M199.667 11.6216C199.8 10.9932 199.991 10.5264 200.239 10.2212H195.551C195.798 10.5255 195.989 10.9923 196.122 11.6216C196.256 12.251 196.323 12.9654 196.323 13.7657V25.8291C196.323 26.6295 196.256 27.3438 196.122 27.9732C195.989 28.6016 195.798 29.0693 195.551 29.3736H200.239C199.991 29.0693 199.8 28.6025 199.667 27.9732C199.533 27.3438 199.467 26.6295 199.467 25.8291V13.7657C199.467 12.9654 199.534 12.251 199.667 11.6216Z" fill="white"/>
<path d="M220.742 27.7572C220.285 26.9672 219.846 26.0468 219.427 24.9989L213.424 10.2197H209.45C209.679 10.4484 209.851 10.7962 209.965 11.263C210.08 11.7298 210.041 12.1824 209.851 12.6209L204.934 24.9705C204.114 26.9909 203.371 28.4584 202.704 29.3731H207.478C207.154 29.1832 206.997 28.7589 207.007 28.1012C207.016 27.4435 207.163 26.7338 207.45 25.9712L208.05 24.3421H215.882C216.722 26.5911 217.236 27.8971 217.427 28.259C217.636 28.6786 217.813 28.9649 217.956 29.117C218.098 29.2701 218.294 29.3703 218.542 29.4175V29.4147C218.789 29.4619 219.217 29.4865 219.828 29.4865H222C221.618 29.1246 221.2 28.5482 220.742 27.7572ZM214.997 22.0279H208.908L211.481 15.0532L211.938 13.7095C211.996 14.0147 212.139 14.4626 212.367 15.0532L214.997 22.0279Z" fill="white"/>
<path d="M64.3007 37.5125C64.3706 37.1827 64.4708 36.937 64.6012 36.7773H61.9902C62.1206 36.937 62.2208 37.1827 62.2907 37.5125C62.3607 37.8423 62.3956 38.2175 62.3956 38.638V45.0004C62.3956 45.4209 62.3607 45.796 62.2907 46.1258C62.2199 46.4556 62.1206 46.7013 61.9902 46.861H64.6012C64.4708 46.7013 64.3706 46.4556 64.3007 46.1258C64.2307 45.796 64.1958 45.4209 64.1958 45.0004V38.638C64.1958 38.2175 64.2307 37.8423 64.3007 37.5125Z" fill="white"/>
<path d="M75.0085 37.5201C75.0784 37.8451 75.1134 38.2175 75.1134 38.638V43.1398C75.1134 43.3401 75.1238 43.5999 75.1436 43.9203C75.0028 43.6699 74.828 43.4147 74.6182 43.1549L69.5911 36.7773H67.1455V36.7925C67.4252 36.9729 67.6728 37.23 67.8882 37.5654C68.1027 37.9 68.2105 38.2127 68.2105 38.5028V45.0155C68.2105 45.4256 68.1755 45.796 68.1056 46.1258C68.0347 46.4547 67.9355 46.7004 67.8051 46.8601H70.1911C70.0607 46.7004 69.9605 46.4603 69.8906 46.14C69.8207 45.8197 69.7801 45.4445 69.7706 45.0146V40.2879C69.7706 39.9779 69.7602 39.7426 69.7404 39.5829C69.8207 39.754 69.9662 39.9789 70.176 40.2586L75.3978 46.861H76.6735V38.638C76.6735 38.2175 76.7085 37.8423 76.7784 37.5125C76.8483 37.1827 76.9485 36.937 77.0789 36.7773H74.708C74.8384 36.9474 74.9386 37.195 75.0085 37.5201Z" fill="white"/>
<path d="M87.4553 36.7551C87.3353 36.7806 87.2446 36.8307 87.185 36.9053C87.1245 36.98 87.0697 37.0981 87.0197 37.2578L84.8434 43.5002C84.5835 44.2609 84.4182 44.7759 84.3483 45.0462C84.2084 44.6256 84.0185 44.0804 83.7784 43.4104L81.9774 38.5637C81.8375 38.164 81.7676 37.7917 81.7676 37.4458C81.7676 37.1 81.8526 36.8779 82.0227 36.7778H79.0811C79.4609 37.3088 79.8465 38.0742 80.2367 39.074L83.3428 46.8624H85.0239L88.01 39.0589C88.2103 38.5288 88.4305 38.0506 88.6705 37.6254C88.9105 37.2002 89.1364 36.8978 89.3461 36.7173H87.9958C87.7558 36.7173 87.5753 36.7305 87.4553 36.7551Z" fill="white"/>
<path d="M96.6944 45.5182C96.4289 45.5437 96.0415 45.556 95.5312 45.556H93.355V42.0748H94.5853C94.9756 42.0748 95.3554 42.0965 95.7259 42.1419C96.0963 42.1863 96.4062 42.2543 96.6566 42.3441V40.784H93.355V38.0682H95.0511C95.7807 38.0682 96.3042 38.106 96.6188 38.1806C96.9335 38.2553 97.2264 38.4178 97.4967 38.6682V36.7773H91.1494C91.2789 36.937 91.3819 37.1827 91.4565 37.5125C91.5312 37.8423 91.569 38.2175 91.569 38.638V45.0004C91.569 45.4209 91.5312 45.796 91.4565 46.1258C91.3819 46.4556 91.2789 46.7013 91.1494 46.861H96.9864C97.217 46.861 97.3994 46.8081 97.5345 46.7032C97.6696 46.5974 97.7698 46.4103 97.835 46.14C97.9002 45.8707 97.9427 45.4757 97.9626 44.955C97.7622 45.1355 97.5676 45.2678 97.3776 45.3528C97.1868 45.4379 96.959 45.4936 96.6944 45.5182Z" fill="white"/>
<path d="M105.554 41.6481C105.194 41.4232 104.723 41.186 104.143 40.9356C103.703 40.7456 103.357 40.5802 103.107 40.4404C102.857 40.3005 102.647 40.1248 102.477 39.915C102.307 39.7052 102.222 39.4548 102.222 39.1647C102.222 38.7744 102.365 38.4739 102.65 38.2642C102.935 38.0544 103.312 37.9495 103.783 37.9495C104.193 37.9495 104.576 38.0166 104.931 38.1517C105.286 38.2868 105.584 38.4522 105.824 38.6469C106.064 38.8425 106.239 39.0248 106.35 39.1949V37.0641C106.079 36.9346 105.757 36.8269 105.382 36.7418C105.007 36.6568 104.583 36.6143 104.114 36.6143C103.414 36.6143 102.783 36.7267 102.223 36.9516C101.662 37.1765 101.224 37.5063 100.909 37.9419C100.595 38.3776 100.437 38.8954 100.437 39.4954C100.437 40.0256 100.557 40.4678 100.797 40.8231C101.037 41.1784 101.324 41.461 101.66 41.6707C101.994 41.8805 102.442 42.1101 103.002 42.3606C103.463 42.5609 103.827 42.7414 104.098 42.9011C104.368 43.0608 104.593 43.2583 104.773 43.4936C104.954 43.7289 105.044 44.0114 105.044 44.3412C105.044 44.7607 104.906 45.0868 104.631 45.3164C104.355 45.546 103.967 45.6613 103.467 45.6613C103.007 45.6613 102.559 45.5762 102.125 45.4062C101.69 45.2361 101.317 45.031 101.007 44.791C100.697 44.551 100.481 44.3355 100.361 44.1456V46.2613C100.612 46.4418 101.002 46.6119 101.532 46.7716H101.533C102.063 46.9323 102.638 47.0126 103.259 47.0126C104.349 47.0126 105.222 46.7442 105.877 46.2094C106.532 45.6745 106.86 44.9422 106.86 44.0114C106.86 43.4217 106.732 42.936 106.477 42.5562C106.222 42.1753 105.914 41.873 105.554 41.6481Z" fill="white"/>
<path d="M108.687 38.758C108.956 38.4877 109.269 38.3053 109.624 38.2099C109.979 38.1145 110.476 38.0672 111.117 38.0672H111.882V45.0004C111.872 45.4105 111.822 45.7828 111.732 46.1183H111.733C111.643 46.4537 111.523 46.7013 111.373 46.861H114.18C114.029 46.7013 113.906 46.4537 113.812 46.1183C113.717 45.7837 113.669 45.4105 113.669 45.0004V38.0672H114.42C115.05 38.0672 115.542 38.1154 115.898 38.2099C116.252 38.3053 116.575 38.4877 116.865 38.758V36.7773H108.687V38.758Z" fill="white"/>
<path d="M129.861 37.5115C129.931 37.1818 130.031 36.9361 130.162 36.7764H127.896C127.885 36.8964 127.843 37.0268 127.768 37.1666C127.693 37.3074 127.56 37.5323 127.37 37.8423L125.464 40.8888C125.144 41.3897 124.889 41.8092 124.699 42.1494C124.558 41.8499 124.298 41.3991 123.918 40.7991L121.367 36.7773H119.086C119.215 36.937 119.318 37.1827 119.393 37.5125C119.468 37.8423 119.505 38.2174 119.505 38.6379V45.0003C119.505 45.4209 119.468 45.796 119.393 46.1258C119.318 46.4546 119.215 46.7003 119.086 46.86H121.487C121.358 46.7003 121.255 46.4546 121.18 46.1248C121.105 45.7951 121.068 45.4199 121.068 44.9994V40.2425C121.068 39.8815 121.052 39.5271 121.022 39.1766C121.112 39.3561 121.242 39.5914 121.412 39.8815L124.609 44.9238H124.639L127.821 39.8522C128.002 39.5527 128.131 39.307 128.211 39.117C128.191 39.3372 128.181 39.6424 128.181 40.0327V44.9994C128.181 45.4199 128.146 45.7951 128.076 46.1248C128.005 46.4546 127.906 46.7003 127.776 46.86H130.162C130.031 46.7003 129.931 46.4546 129.861 46.1248C129.791 45.7951 129.756 45.4199 129.756 44.9994V38.637C129.756 38.2165 129.791 37.8413 129.861 37.5115Z" fill="white"/>
<path d="M138.796 45.5182C138.53 45.5437 138.143 45.556 137.633 45.556H135.456V42.0748H136.687C137.077 42.0748 137.457 42.0965 137.827 42.1419C138.198 42.1863 138.508 42.2543 138.758 42.3441V40.784H135.456V38.0682H137.152C137.881 38.0682 138.404 38.106 138.719 38.1806C139.035 38.2553 139.327 38.4178 139.597 38.6682V36.7773H133.25C133.379 36.937 133.482 37.1827 133.557 37.5125C133.632 37.8423 133.67 38.2175 133.67 38.638V45.0004C133.67 45.4209 133.632 45.796 133.557 46.1258H133.558C133.483 46.4556 133.38 46.7013 133.251 46.861H139.088C139.319 46.861 139.501 46.8081 139.636 46.7032C139.771 46.5974 139.871 46.4103 139.937 46.14C140.002 45.8707 140.044 45.4757 140.064 44.955C139.864 45.1355 139.669 45.2678 139.479 45.3528C139.288 45.4379 139.061 45.4936 138.796 45.5182Z" fill="white"/>
<path d="M149.948 37.5201C150.022 37.8451 150.06 38.2175 150.06 38.638V43.1398C150.06 43.4402 150.071 43.7001 150.09 43.9203C149.9 43.6198 149.725 43.3647 149.565 43.1549L144.538 36.7773H142.077V36.7925C142.367 36.9729 142.62 37.23 142.835 37.5654C143.05 37.9 143.157 38.2127 143.157 38.5028V45.0155C143.157 45.4256 143.119 45.796 143.045 46.1258C142.97 46.4547 142.867 46.7004 142.738 46.8601H145.124C144.993 46.69 144.893 46.4452 144.823 46.1249C144.753 45.8045 144.718 45.4351 144.718 45.0146V40.2879C144.718 40.0582 144.708 39.8229 144.688 39.5829C144.788 39.7937 144.934 40.0186 145.124 40.2586L150.33 46.861H151.621V38.638C151.621 38.2175 151.656 37.8451 151.726 37.5201C151.796 37.195 151.896 36.9474 152.027 36.7773H149.641C149.77 36.9474 149.873 37.195 149.948 37.5201Z" fill="white"/>
<path d="M154.125 38.758C154.405 38.4972 154.722 38.3176 155.078 38.2175C155.433 38.1173 155.93 38.0672 156.571 38.0672H157.321V45.0004C157.321 45.4105 157.273 45.7828 157.178 46.1183H157.179C157.084 46.4537 156.962 46.7013 156.812 46.861H159.618C159.468 46.7013 159.345 46.4537 159.25 46.1183C159.155 45.7837 159.108 45.4105 159.108 45.0004V38.0672H159.873C160.503 38.0672 160.996 38.1154 161.351 38.2099C161.705 38.3053 162.024 38.4877 162.304 38.758V36.7773H154.125V38.758Z" fill="white"/>
<path d="M169.406 41.6481C169.046 41.4232 168.576 41.186 167.996 40.9356C167.555 40.7456 167.209 40.5802 166.96 40.4404C166.71 40.3005 166.5 40.1248 166.33 39.915C166.16 39.7052 166.074 39.4548 166.074 39.1647C166.074 38.7744 166.217 38.4739 166.503 38.2642C166.788 38.0544 167.165 37.9495 167.636 37.9495C168.046 37.9495 168.428 38.0166 168.784 38.1517C169.139 38.2868 169.437 38.4522 169.677 38.6469C169.917 38.8425 170.092 39.0248 170.202 39.1949V37.0641C169.932 36.9346 169.61 36.8269 169.234 36.7418C168.859 36.6568 168.436 36.6143 167.966 36.6143C167.266 36.6143 166.636 36.7267 166.075 36.9516C165.514 37.1765 165.077 37.5063 164.762 37.9419C164.447 38.3776 164.289 38.8954 164.289 39.4954C164.289 40.0256 164.409 40.4678 164.649 40.8231C164.89 41.1784 165.177 41.461 165.512 41.6707C165.847 41.8805 166.295 42.1101 166.855 42.3606C167.315 42.5609 167.68 42.7414 167.95 42.9011C168.22 43.0608 168.445 43.2583 168.626 43.4936C168.806 43.7289 168.896 44.0114 168.896 44.3412C168.896 44.7607 168.758 45.0868 168.483 45.3164C168.207 45.546 167.82 45.6613 167.32 45.6613C166.86 45.6613 166.412 45.5762 165.977 45.4062C165.542 45.2361 165.169 45.031 164.859 44.791C164.549 44.551 164.334 44.3355 164.214 44.1456V46.2613C164.464 46.4418 164.855 46.6119 165.385 46.7716H165.386C165.916 46.9323 166.49 47.0126 167.111 47.0126C168.202 47.0126 169.074 46.7442 169.73 46.2094C170.384 45.6745 170.712 44.9422 170.712 44.0114C170.712 43.4217 170.585 42.936 170.33 42.5562C170.075 42.1753 169.766 41.873 169.406 41.6481Z" fill="white"/>

<g class="icon">
<path d="M23.6278 5.76307L23.6637 5.77157V5.92844L23.6325 5.93978C23.3831 6.02955 23.1969 6.17224 23.0797 6.33855C22.9833 6.47651 22.9333 6.63149 22.9333 6.7893C22.9333 7.1068 22.9588 7.35533 23.0542 7.53676C23.0996 7.62369 23.1601 7.69457 23.2423 7.75221C23.4993 7.93081 23.9727 7.97522 24.8449 7.84576C25.5962 7.73425 26.0592 7.77016 26.3351 7.93459C26.44 7.99695 26.5175 8.07822 26.5723 8.17555C26.663 8.3343 26.6914 8.53369 26.6914 8.7567C26.6914 9.12523 26.646 9.60244 26.5062 9.98893C26.4192 10.2289 26.2935 10.4406 26.1149 10.5663C26.0053 10.6438 25.8759 10.6873 25.7266 10.6873C25.4166 10.6873 25.0056 10.5871 24.586 10.485C24.1211 10.3716 23.641 10.2554 23.2489 10.2554C23.0334 10.2554 22.869 10.2989 22.7377 10.4057C22.5647 10.5455 22.439 10.8035 22.3446 11.2514C22.2227 11.791 22.268 12.288 22.286 12.4383L22.3559 12.4657V12.4676C23.0022 12.2275 23.8735 12.1935 24.8374 12.186C25.5414 12.1803 26.3002 12.1746 27.0712 12.0801L27.0986 12.0763C27.0986 12.0763 27.1346 12.1245 27.1412 12.134L27.195 12.2067C27.0873 12.4676 26.9881 12.7095 26.8945 12.941C26.7963 13.1857 26.6233 13.576 26.5931 13.6469C26.5969 13.6525 26.6243 13.6875 26.6281 13.6932C27.1771 13.5996 28.1277 13.2651 28.7155 12.7756C28.9952 12.5431 29.2343 12.2483 29.4176 11.8826C29.6321 11.4536 29.771 10.9263 29.805 10.2828L29.8069 10.2422L29.9902 10.2233L30.0053 10.2516C30.5071 11.2202 31.1724 12.3721 32.0568 13.113L32.0767 13.129L32.054 13.3142L32.0096 13.3114C31.6042 13.2897 31.2357 13.1763 30.9172 12.9731C30.6215 12.7841 30.3493 12.443 30.1565 12.0556L30.1064 12.0603C29.9789 12.546 29.6746 13.1016 29.2097 13.4654C28.3819 14.1137 27.1166 14.5115 25.6009 14.4595L25.5149 14.3367C25.582 14.1449 25.908 13.3265 26.0753 13.0109C26.0753 13.0109 26.0743 13.009 26.0734 13.009C26.0696 13.0033 26.0658 12.9977 26.0611 12.992C25.8381 13.01 25.5319 13.0156 25.1936 13.0222C24.7589 13.0307 24.2704 13.0402 23.8272 13.0761L22.4882 15.2599C23.6448 15.515 24.7901 15.8307 25.9231 16.2077C26.235 15.9781 26.6092 15.8307 26.9994 15.7777C27.3897 15.7248 27.796 15.7674 28.1721 15.9167C28.5482 16.066 28.8723 16.3145 29.1199 16.6206C29.3675 16.9268 29.5376 17.2906 29.6066 17.6724C30.6933 18.1789 31.7469 18.7383 32.7665 19.3506C32.7967 19.2939 32.8175 19.2552 32.8232 19.2448C33.9921 17.1498 34.5052 15.8089 34.4637 14.606C34.4287 13.5949 34.0006 12.6745 33.221 11.4791L33.2021 11.4498L33.3174 11.3138L33.3495 11.3289C33.7238 11.4999 34.0639 11.7787 34.3588 12.1066C34.8558 12.6603 35.2281 13.3586 35.4218 13.9379C35.4228 13.9417 35.4247 13.9436 35.4266 13.9455C35.4285 13.9474 35.4313 13.9483 35.4351 13.9492C35.4351 13.9492 35.4417 13.9492 35.4436 13.9474C35.4455 13.9464 35.4474 13.9445 35.4492 13.9417C36.0228 12.9835 36.2052 12.0622 36.0852 11.2164C35.9548 10.296 35.4644 9.46164 34.7178 8.76615L34.6848 8.73497L34.8029 8.59889L34.8322 8.6074C35.2669 8.73402 36.2213 9.21784 36.5463 9.68937C36.5482 9.69221 36.5501 9.69315 36.552 9.6941C36.5539 9.6941 36.5558 9.69504 36.5577 9.69599H36.5596C36.5596 9.69599 36.5643 9.69599 36.5662 9.6941C36.5681 9.69315 36.57 9.69126 36.5719 9.68937C36.7618 9.41156 36.8884 9.04019 36.9243 8.64047C36.9612 8.23225 36.9035 7.79662 36.7278 7.40257C36.5634 7.03593 36.2969 6.70614 35.9057 6.46801C35.4681 6.20153 34.8709 6.04939 34.0847 6.09475L34.0375 6.09759L34.0261 5.89631L34.0677 5.88969C34.8492 5.75834 35.4011 5.53533 35.8168 5.26413C36.4074 4.87953 36.7268 4.39477 37.0424 3.91662C37.1077 3.81834 37.1719 3.72007 37.239 3.62368C37.2409 3.62085 37.2409 3.61801 37.2409 3.61518C37.2409 3.61423 37.2409 3.61234 37.2399 3.6114C37.2399 3.6114 37.239 3.60951 37.2371 3.60856C36.8818 3.36949 36.3196 3.07939 35.5456 3.05104C34.8861 3.02741 34.0706 3.19562 33.0944 3.75503L33.0547 3.77771L32.9404 3.5925L32.9801 3.56793C33.2475 3.39784 33.5707 3.08695 33.7946 2.67872C33.9581 2.38106 34.0696 2.03143 34.0696 1.64683C34.0696 1.33877 33.9779 0.957952 33.7483 0.627217C33.5678 0.368298 33.3023 0.139618 32.929 0.000708719C32.9253 -0.00023624 32.9215 -0.00023624 32.9177 0.000708719C32.9139 0.00259864 32.9101 0.00543353 32.9073 0.00921337C32.6493 0.475078 32.2884 0.833218 31.8641 1.11104C30.697 1.8774 29.0471 2.0371 27.728 2.16656C27.5503 2.18356 27.3793 2.20057 27.2158 2.21853C26.0535 2.34326 25.4157 2.61447 25.05 2.93103C24.7466 3.19373 24.6276 3.49139 24.5548 3.77582L24.551 3.78905C24.551 3.78905 24.5406 3.79944 24.5397 3.79944L24.5312 3.80795L24.5198 3.81078C23.8329 3.97993 23.5976 4.0423 23.1771 4.17365C22.9862 4.23318 22.87 4.31067 22.8 4.40611C22.7273 4.50533 22.6989 4.63006 22.6989 4.79354C22.6989 4.99765 22.7651 5.17625 22.8803 5.32366C23.0429 5.53155 23.3056 5.68275 23.6278 5.76307ZM26.784 4.01206C26.8057 3.96009 26.835 3.91378 26.8851 3.88166C26.9389 3.84575 27.0108 3.83063 27.1062 3.83063C27.3869 3.83063 27.6996 3.87221 28.0039 3.93552C28.3394 4.00545 28.6569 4.11317 28.7826 4.26814C28.8194 4.3135 28.8421 4.36453 28.8421 4.42123C28.8421 4.47793 28.8222 4.52612 28.7882 4.57053C28.6437 4.75763 28.2052 4.87008 27.7119 4.99954C27.1279 5.15263 26.8388 5.21027 26.6904 5.21027C26.663 5.21027 26.6375 5.2046 26.6148 5.1942C26.594 5.18475 26.577 5.17058 26.5638 5.15452C26.5354 5.1205 26.5241 5.07703 26.5241 5.03451C26.5241 4.7737 26.629 4.37776 26.784 4.01206Z" fill="white"/>
<path d="M22.78 9.64979C24.6803 9.64979 24.8202 9.98147 25.5223 9.98147C25.8001 9.98147 25.8643 9.82555 25.8643 9.53356C25.8643 9.09793 25.4467 8.7379 24.4828 8.7379H23.0153C21.2312 8.7379 20.4771 7.71924 20.2031 7.71924C20.17 7.71924 20.1436 7.75798 20.1436 7.93752C20.1436 8.74452 20.8797 9.64979 22.78 9.64979Z" fill="white"/>
<path d="M26.4182 20.3304C28.861 21.3018 31.1336 22.5633 33.2115 24.096L36.157 19.8872L35.7195 19.6037C35.6051 19.5291 35.4813 19.4828 35.3557 19.462C35.23 19.4412 35.0911 19.4468 34.9644 19.479C34.8378 19.5111 34.7169 19.5687 34.612 19.65C34.5071 19.7313 34.4239 19.8277 34.3587 19.9477L33.7814 21.0013L33.7388 20.972C32.4131 20.08 31.0192 19.2871 29.5649 18.5917C29.547 18.654 29.5262 18.7164 29.5026 18.7778C29.3391 19.1879 29.1057 19.495 28.8005 19.6878C28.6512 19.7823 28.4953 19.8522 28.3233 19.8957L28.2855 19.9051L28.2118 19.7464L28.2382 19.7228C28.4745 19.5187 28.6729 19.2456 28.8071 18.9073C28.98 18.4726 28.9602 18.0086 28.7891 17.6098C28.6172 17.2111 28.294 16.8784 27.8584 16.7055C27.4237 16.5326 26.9597 16.5524 26.5609 16.7235C26.1621 16.8945 25.8295 17.2186 25.6566 17.6543C25.5224 17.9926 25.4789 18.328 25.5101 18.638L25.5139 18.6729L25.3514 18.7381L25.3306 18.7051C25.2351 18.5557 25.1699 18.3979 25.1265 18.226C25.0367 17.8763 25.0783 17.4936 25.2408 17.0826C25.2654 17.0202 25.2937 16.9597 25.324 16.9011C23.7894 16.4079 22.2311 16.0299 20.6549 15.7672L20.6039 15.7587L20.9082 14.5964C20.9431 14.4641 20.9479 14.3318 20.928 14.2061C20.9082 14.0804 20.86 13.95 20.7901 13.8395C20.7201 13.7289 20.6275 13.6325 20.517 13.5588C20.4064 13.4851 20.2892 13.436 20.155 13.4114L19.6429 13.3169L18.8926 18.3989C21.4563 18.7117 23.9736 19.3571 26.4163 20.3285L26.4182 20.3304Z" fill="white"/>
<path d="M48.1533 53.1204C47.7971 52.9002 47.4408 52.6791 47.0836 52.458C46.2615 51.9487 45.2154 51.6982 44.2705 51.6982C43.5977 51.6982 42.5535 51.8305 41.6416 52.3758C42.4949 52.905 43.3406 53.4285 44.1892 53.9539C44.553 54.1788 44.9168 54.4046 45.2816 54.6304H45.2797C46.1018 55.1398 47.1479 55.3902 48.0928 55.3902H48.0957C49.0019 55.3902 50.1028 55.1606 50.9617 54.5586C50.3059 54.4263 49.6019 54.0068 48.8195 53.5334C48.5974 53.3954 48.3754 53.2584 48.1533 53.1204Z" fill="white"/>
<path d="M33.4642 29.3671C34.3931 29.3179 35.0923 29.0949 35.4089 28.8596C35.4117 28.8577 35.4127 28.8558 35.4136 28.8539C35.4136 28.8511 35.4146 28.8483 35.4136 28.8454C35.4127 28.8426 35.4117 28.8388 35.4089 28.8369C35.407 28.835 35.4051 28.8332 35.4013 28.8332C34.6888 28.6678 34.2419 28.4986 33.5936 27.9695C33.0938 27.5612 32.6591 26.9773 32.3567 26.3101C32.0628 25.6628 31.8937 24.9352 31.9135 24.2151C30.1134 22.9782 28.1715 21.9425 26.1039 21.1195C23.9702 20.2709 21.7788 19.6793 19.5506 19.3477C18.5404 20.371 17.5085 20.732 16.7828 20.8492C16.0316 20.9702 15.269 20.8653 14.6548 20.5496L14.6104 20.578C14.6491 21.2338 14.9345 21.8716 15.4136 22.3432C15.9238 22.8449 16.6798 23.1747 17.6418 23.1681C18.7445 23.1596 19.7878 22.8317 20.9737 21.9945L21.1211 22.1192C20.6411 23.1058 20.2291 24.5591 20.2291 26.1211C20.2291 26.8998 20.4115 27.6803 20.6638 28.2482H20.7157C21.0606 27.4696 21.4934 26.673 22.0906 25.8357C22.9354 24.6517 23.9551 23.6529 24.8358 22.8629L24.8603 22.8412C24.8603 22.8412 24.9284 22.8761 24.9416 22.8827C24.9548 22.8894 25.0229 22.9253 25.0229 22.9253L25.0191 22.9574C24.815 24.6668 24.8669 26.6201 25.4849 28.2303V28.2284C25.8913 29.2877 26.7361 30.2525 27.7046 30.9007L27.7481 30.8705C27.5563 30.0531 27.4703 29.2338 27.5279 28.4032C27.613 27.1568 27.9418 26.0521 28.5523 25.0363L28.5693 25.008C28.5693 25.008 28.6458 25.024 28.66 25.0269C28.6742 25.0297 28.7517 25.0458 28.7517 25.0458L28.7554 25.0798C28.8566 25.9284 29.1315 26.7542 29.5605 27.4516C29.8913 27.9884 30.3137 28.4486 30.8183 28.7831C31.442 29.196 32.1866 29.3756 33.0692 29.3774C33.0682 29.3746 33.0673 29.3737 33.0673 29.3727H33.1382C33.2459 29.3746 33.3536 29.3727 33.4642 29.3671Z" fill="white"/>
<path d="M52.9864 26.8018C53.3285 26.1186 53.5108 25.4032 53.5175 24.7588C53.5222 24.3203 53.4456 23.9159 53.2841 23.5757C53.2822 23.5719 53.2803 23.57 53.2784 23.5691C53.2756 23.5672 53.2727 23.5662 53.2689 23.5672C53.2652 23.5681 53.2614 23.5681 53.2595 23.5709C53.2576 23.5728 53.2548 23.5747 53.2538 23.5794C53.1149 23.93 52.9117 24.1842 52.6613 24.3713C52.0953 24.7937 51.294 24.8636 50.4775 24.9364C49.3984 25.0328 48.2881 25.1339 47.5614 25.9995L47.5378 26.0278C47.5378 26.0278 47.4726 25.9957 47.4631 25.991C47.4537 25.9863 47.3875 25.9532 47.3875 25.9532L47.397 25.9163C47.4612 25.665 47.5897 25.441 47.7466 25.2482C48.0424 24.8835 48.4411 24.6236 48.7029 24.4951C48.7057 24.4942 48.7067 24.4923 48.7086 24.4904C48.7095 24.4885 48.7105 24.4866 48.7105 24.4838C48.7105 24.4809 48.7105 24.479 48.7095 24.4772C48.7095 24.4753 48.7076 24.4743 48.7057 24.4724C48.4478 24.2901 48.014 24.1181 47.5671 24.1181C47.0086 24.1181 46.5758 24.2683 46.229 24.5159C45.4626 25.064 45.1083 26.0912 44.7747 27.0654C44.5026 27.8611 44.2417 28.6265 43.7655 29.0186C43.5982 29.1566 43.4045 29.2492 43.1749 29.2804L43.1437 29.2851L43.0691 29.1613L43.0993 29.1358C43.3327 28.9374 43.5094 28.6803 43.6389 28.3997C43.8553 27.931 43.9394 27.399 43.9394 26.9709C43.9394 26.574 43.8808 26.1885 43.8222 25.8086C43.7485 25.3276 43.6748 24.8542 43.7315 24.3874C43.7664 24.1011 43.876 23.7127 43.9998 23.4084C44.0008 23.4056 44.0008 23.4037 44.0008 23.4018C44.0008 23.3999 43.9998 23.3971 43.9979 23.3952C43.9961 23.3933 43.9942 23.3914 43.9923 23.3905C43.9904 23.3905 43.9885 23.3895 43.9847 23.3905C43.619 23.4453 43.2883 23.6475 43.0039 23.9262C42.4822 24.4394 42.1317 25.2048 42.0409 25.7481L42.0343 25.7878H41.8548L41.8472 25.7491C41.7338 25.1462 41.7385 24.6274 41.8803 24.1379C42.0334 23.6078 42.3452 23.1164 42.8309 22.592C42.8338 22.5891 42.8347 22.5863 42.8356 22.5844V22.5759C42.8356 22.5759 42.8328 22.5702 42.83 22.5683C42.8281 22.5665 42.8253 22.5655 42.8224 22.5655C42.3112 22.523 41.8236 22.6024 41.3766 22.7706C40.838 22.9737 40.358 23.3073 39.9658 23.7155C39.5699 24.1275 39.2646 24.6161 39.0804 25.1197C38.9311 25.5298 38.8612 25.9494 38.8876 26.3482C38.9462 27.2431 39.2817 27.8544 39.5859 28.4063C39.8496 28.8844 40.0934 29.3257 40.0934 29.8644C40.0934 30.1091 40.0168 30.3255 39.8685 30.4965C39.6946 30.6969 39.4262 30.8301 39.0775 30.8793C37.7924 31.0607 36.4799 31.3196 35.1475 31.742C35.4376 32.2844 35.7305 32.8117 36.0215 33.3362C36.1718 33.6055 36.3202 33.8729 36.4666 34.1413C37.6951 33.5837 39.6171 32.9138 40.2238 33.0546C40.3485 33.0838 40.4345 33.1301 40.4931 33.1991C40.5885 33.3125 40.5961 33.4751 40.6065 33.6555C40.6235 33.9475 40.6462 34.3397 40.976 34.8349C41.4655 35.5691 42.2942 35.9783 43.0917 36.3695C43.8184 36.7267 44.5243 37.0716 44.8834 37.6471C45.0383 37.8965 45.1281 38.1876 45.1281 38.5391C45.1281 39.0125 45.0109 39.3347 44.7586 39.8526C44.7568 39.8554 44.7567 39.8583 44.7567 39.8611C44.7567 39.8639 44.7577 39.8668 44.7596 39.8696C44.7615 39.8724 44.7634 39.8743 44.7662 39.8753H44.7624C44.7624 39.8753 44.7671 39.8781 44.77 39.8772C45.7423 39.7921 46.4539 39.4774 46.9415 39.0428C47.3828 38.6497 47.6427 38.1564 47.7485 37.6385C47.8647 37.0716 47.7948 36.4763 47.5727 35.9537C47.3677 35.4699 47.0313 35.0503 46.5938 34.7725L46.5616 34.7517C46.5616 34.7517 46.5871 34.6837 46.5909 34.6742C46.5947 34.6648 46.6193 34.5977 46.6193 34.5977L46.6561 34.6024C47.0558 34.6487 47.4414 34.8226 47.7702 35.0598C48.151 35.3347 48.4572 35.6967 48.6235 36.052C48.6245 36.0548 48.6264 36.0567 48.6282 36.0576C48.6301 36.0595 48.633 36.0605 48.6358 36.0605C48.6358 36.0605 48.6415 36.0605 48.6443 36.0595C48.6462 36.0595 48.649 36.0567 48.6509 36.0548C48.8182 35.8488 48.9089 35.5606 48.9051 35.227C48.9004 34.7337 48.6887 34.1479 48.2257 33.5988C47.8959 33.2086 47.4489 32.8845 46.9311 32.635C46.1988 32.2825 45.3256 32.0822 44.4459 32.0586H44.4118C44.4118 32.0586 44.3929 31.9924 44.3892 31.982C44.3854 31.9716 44.3665 31.9045 44.3665 31.9045L44.3967 31.8856C44.58 31.7694 44.7823 31.7023 44.9977 31.6702C45.6271 31.5776 46.3783 31.7874 47.1059 31.9896C47.7041 32.1559 48.2871 32.3184 48.7917 32.3184C49.5486 32.3184 50.1515 31.9404 50.7544 31.5606C51.2429 31.2525 51.7334 30.9426 52.2985 30.8556C52.5649 30.815 52.8484 30.8235 53.1555 30.9048C53.1593 30.9057 53.1622 30.9048 53.165 30.9048C53.1678 30.9048 53.1707 30.9019 53.1735 30.8991C53.1763 30.8963 53.1773 30.8934 53.1773 30.8906C53.1773 30.8878 53.1773 30.8849 53.1763 30.8821C53.028 30.5343 52.8012 30.2858 52.5338 30.1091C51.8628 29.6669 50.9283 29.6659 50.28 29.6659L49.9777 29.664L49.9673 29.596C49.9644 29.5743 49.9521 29.4939 49.9521 29.4939L49.989 29.4817C51.3856 29.0045 52.4119 27.9508 52.9864 26.8018Z" fill="white"/>
<path d="M23.4795 51.6982C22.8067 51.6982 21.7625 51.8305 20.8506 52.3758C21.5546 52.8123 22.2529 53.2442 22.9522 53.6779C23.4634 53.9945 23.9756 54.312 24.4906 54.6304C25.3127 55.1398 26.3597 55.3902 27.3037 55.3902C28.4972 55.3902 29.444 55.0009 29.9326 54.7127C28.7136 53.9576 27.5107 53.213 26.2926 52.458C25.4705 51.9487 24.4235 51.6982 23.4795 51.6982Z" fill="white"/>
<path d="M3.86839 13.1289C4.40513 13.4625 5.42002 13.7838 6.62957 13.7838C7.46774 13.7838 8.42404 13.6165 9.1167 13.4814L9.15072 13.4748L9.16772 13.505C9.68462 14.4424 9.80179 15.754 9.92842 17.1545C10.1221 19.2986 10.3366 21.6619 11.9894 23.3147L11.9913 23.3118C12.8124 24.133 13.7546 24.4571 14.6201 24.5214C15.7106 24.6026 16.6764 24.2719 17.1186 24.0064C16.2039 23.927 15.4139 23.5339 14.8337 22.9546C14.2251 22.347 13.8491 21.5362 13.8027 20.6688C13.7763 20.1594 13.8613 19.7191 13.9568 19.3921L13.9634 19.3685C13.9634 19.3685 14.0191 19.3506 14.0314 19.3458C14.0475 19.3411 14.1089 19.3203 14.1089 19.3203L14.1288 19.3354C14.6419 19.7229 15.2759 20.1008 16.2946 20.047C17.1148 20.0045 17.8169 19.6699 18.3877 19.2381C16.7454 19.1001 15.1701 18.2941 14.0031 17.0278C12.7964 15.7181 12.0243 13.9161 12.0621 11.8485V11.8192L12.0886 11.8069C12.6064 11.5556 13.215 11.0179 13.6553 10.3149C14.0088 9.74977 14.2525 9.08074 14.2525 8.37013C14.2525 8.21138 14.244 7.97136 14.1968 7.73323C14.1911 7.70582 14.1788 7.68314 14.1628 7.66519C14.1448 7.64629 14.1221 7.63212 14.0976 7.6255C14.073 7.61889 14.0456 7.61794 14.0201 7.6255C13.9965 7.63212 13.9738 7.64535 13.9549 7.66519C13.5788 8.06774 12.9239 8.61676 12.3881 8.84922C12.2275 8.91915 12.0744 8.96167 11.9402 8.96167C11.8467 8.96167 11.7664 8.93522 11.6974 8.88608C11.5084 8.75189 11.4054 8.44951 11.2797 8.08853C11.241 7.97703 11.1994 7.85796 11.1521 7.73417C10.7581 6.69283 10.2847 5.98127 9.77817 5.49556C9.35105 5.0864 8.9003 4.83787 8.45239 4.69046C8.42593 4.68195 8.39947 4.68101 8.37679 4.68668C8.35128 4.69235 8.3286 4.70558 8.3097 4.72353C8.2908 4.74149 8.27757 4.76417 8.27096 4.78968C8.26529 4.8133 8.26434 4.83882 8.27285 4.86622C8.45901 5.49178 8.7699 6.77409 8.7699 7.74362C8.7699 7.926 8.74249 8.07247 8.69052 8.18681C8.6565 8.26146 8.61303 8.32194 8.55917 8.36918C8.50342 8.41832 8.43916 8.4514 8.36829 8.46935C8.26812 8.49581 8.15756 8.49297 8.04228 8.46935C7.71343 8.40037 7.37608 8.27185 7.0066 8.132C6.2941 7.8608 5.45687 7.54235 4.30969 7.50171C4.27756 7.50077 4.25016 7.50927 4.22842 7.52345C4.20385 7.53857 4.18496 7.56219 4.17362 7.58865C4.16228 7.61511 4.15944 7.6444 4.16511 7.67275C4.17078 7.69826 4.18307 7.72283 4.20669 7.74551C4.27284 7.80788 4.3456 7.87686 4.42403 7.95057C5.20362 8.68291 6.52562 9.92364 6.86297 10.7042C6.91494 10.8242 6.94518 10.9376 6.94518 11.0387C6.94518 11.2532 6.87525 11.4384 6.7543 11.6009C6.35269 12.1396 5.38033 12.4278 4.50152 12.6905C4.29457 12.7519 4.09235 12.8124 3.90241 12.8747C3.87406 12.8842 3.85233 12.8993 3.83627 12.9192C3.81926 12.94 3.80792 12.9655 3.80414 12.9929C3.80036 13.0203 3.80414 13.0467 3.81642 13.0713C3.82682 13.093 3.84383 13.1138 3.86839 13.1289Z" fill="white"/>
<path d="M33.2223 52.4575C32.4002 51.9482 31.3541 51.6978 30.4092 51.6978C29.7363 51.6978 28.6922 51.83 27.7803 52.3753C28.6336 52.9045 29.4793 53.428 30.3279 53.9534C30.6917 54.1783 31.0555 54.4041 31.4203 54.63C32.2424 55.1402 33.2884 55.3907 34.2334 55.3907C35.4269 55.3907 36.3737 55.0013 36.8623 54.7131C36.146 54.269 35.4344 53.8286 34.7229 53.3873C34.2239 53.0783 33.725 52.7693 33.2223 52.4575Z" fill="white"/>
<path d="M19.3629 52.4575C18.5408 51.9482 17.4947 51.6978 16.5498 51.6978C15.877 51.6978 14.8328 51.83 13.9209 52.3753C14.7742 52.9045 15.6199 53.428 16.4685 53.9534C16.8323 54.1783 17.1961 54.4041 17.5609 54.63C18.383 55.1402 19.4291 55.3907 20.374 55.3907C21.5675 55.3907 22.5144 55.0013 23.0029 54.7131C22.2866 54.269 21.5751 53.8286 20.8635 53.3873C20.3646 53.0783 19.8656 52.7693 19.3629 52.4575Z" fill="white"/>
<path d="M37.3388 51.6982C36.666 51.6982 35.6218 51.8305 34.71 52.3758C35.4943 52.8615 36.271 53.3425 37.0497 53.8253C37.4815 54.0928 37.9153 54.3611 38.3499 54.6304C39.1721 55.1398 40.2181 55.3902 41.1631 55.3902C42.3566 55.3902 43.3034 55.0009 43.792 54.7127C42.573 53.9576 41.37 53.213 40.152 52.458C39.3299 51.9487 38.2838 51.6982 37.3388 51.6982Z" fill="white"/>
<path d="M8.61236 32.3899C8.80324 32.2936 9.00452 32.2387 9.22091 32.2387C9.45715 32.2387 9.66788 32.3106 9.85687 32.4353C10.2821 32.715 10.5968 33.2631 10.8557 33.866C10.8812 33.9246 10.9199 33.9661 10.9653 33.9926C11.0154 34.0219 11.073 34.0332 11.1297 34.0276C11.1864 34.0219 11.2412 33.9983 11.2838 33.9605C11.3225 33.9255 11.3518 33.8773 11.3641 33.814C11.5191 33.041 11.4642 32.3314 11.4189 31.7493C11.383 31.2881 11.3518 30.8969 11.4472 30.6276C11.4765 30.5463 11.5172 30.4745 11.5739 30.415C11.6655 30.3186 11.7817 30.2439 11.9216 30.1891C12.326 30.0285 12.9422 30.019 13.8011 30.0682C14.6535 30.1164 15.5077 30.242 16.4026 30.3734C17.3958 30.5189 18.439 30.672 19.5928 30.7372C20.7626 30.8034 21.7029 30.7637 22.3351 30.6711L22.3653 30.6663L22.4598 30.8166L22.4418 30.8421C22.319 31.0188 22.1394 31.1653 21.9051 31.2824C21.357 31.5574 20.5028 31.6756 19.3594 31.6359C18.4928 31.6056 17.58 31.4979 16.6379 31.3864C16.4848 31.3684 16.3308 31.3505 16.1758 31.3325C17.0348 33.6533 19.5011 35.6274 21.9325 37.5721C24.088 39.2957 26.216 40.9966 27.125 42.8875C27.418 43.4979 27.5852 44.1292 27.5852 44.7878C27.5852 45.5012 27.3774 46.0692 27.0324 46.4594C26.8633 46.6503 26.663 46.7987 26.439 46.8998C26.2056 47.0047 25.9476 47.0595 25.6764 47.0595C25.0584 47.0595 24.5633 46.8592 24.1787 46.5237C23.5975 46.0172 23.2753 45.2064 23.1543 44.3267C23.0362 43.4639 23.1118 42.5275 23.3348 41.7318C23.4841 41.1979 23.7015 40.7235 23.9727 40.3758C23.2054 39.6812 22.3275 38.9754 21.4024 38.2355C21.3485 38.1929 21.2947 38.1485 21.2398 38.1051C21.2049 38.0776 21.1699 38.0493 21.1359 38.0219C19.8923 39.2513 18.9323 41.403 18.783 43.7474C18.7017 45.0269 18.8614 46.3621 19.348 47.634C19.7591 48.7103 20.4045 49.7422 21.3343 50.6569C21.4799 50.7996 21.6292 50.9385 21.7822 51.0737C22.4277 50.8989 23.0343 50.8469 23.4813 50.8469C24.5576 50.8469 25.7643 51.1285 26.7414 51.7342C26.7868 51.7625 26.8321 51.79 26.8775 51.8183L26.8756 51.8202C26.9077 51.84 26.9398 51.8599 26.971 51.8797L27.2658 51.6954C28.3781 51.0009 29.6339 50.8488 30.4097 50.8488C31.486 50.8488 32.6927 51.1304 33.6698 51.7361C33.7095 51.7607 33.7492 51.7852 33.7889 51.8098C33.8258 51.8325 33.8636 51.8561 33.9004 51.8788C34.5137 51.4639 35.0825 50.9858 35.6051 50.4576C37.4572 48.5865 38.3852 46.1589 38.3852 43.171C38.3852 39.3354 36.9186 36.698 35.2763 33.7469C34.6819 32.6791 34.0648 31.5697 33.4875 30.3479C33.4676 30.3063 33.4478 30.2619 33.427 30.2165C32.2382 30.2723 31.1355 30.0115 30.2661 29.4445C29.8645 29.1827 29.4704 28.7745 29.1539 28.3049C28.8874 27.9099 28.6738 27.4705 28.5576 27.0367L28.5028 27.0386C28.3979 27.6321 28.3478 28.4249 28.3516 29.0212C28.3582 29.9812 28.4584 30.9328 28.6464 31.8749L28.6521 31.9014C28.6521 31.9014 28.6219 31.9279 28.6181 31.9316C28.5926 31.9543 28.5293 32.0101 28.5293 32.0101L28.5037 32.0016C27.5654 31.6774 26.7234 31.2069 26.0336 30.5435C25.4515 29.985 24.9781 29.2905 24.6436 28.4343C24.2732 27.4847 24.0331 26.071 24.1824 24.6394L24.1333 24.6177C23.5427 25.3009 22.9909 26.0077 22.5996 26.5586C22.1187 27.2352 21.6292 27.9779 20.8297 29.5551L20.8174 29.5787C20.8174 29.5787 20.7522 29.5834 20.7371 29.5844C20.722 29.5853 20.6568 29.59 20.6568 29.59L20.6417 29.5683C19.8989 28.5373 19.4605 27.6519 19.3811 26.1494C19.3367 25.3018 19.5266 24.1612 20.0208 23.2522L19.9812 23.2153C13.9797 27.1445 6.60999 28.5071 2.29625 29.0193C0.964803 29.1667 0.399718 29.281 0.160643 29.4086C0.12379 29.4284 0.0963859 29.4473 0.0755968 29.4662C0.0548077 29.4851 0.0415782 29.5021 0.0311836 29.5201C0.0198441 29.5399 0.0122845 29.5598 0.00755967 29.5825C0.00188991 29.6099 0 29.6411 0 29.676C0 29.7346 0.0188993 29.7828 0.0519729 29.8244C0.141744 29.9359 0.34302 30.002 0.603829 30.0578C0.68415 30.0748 0.770142 30.0927 0.859913 30.1116C1.42594 30.2288 2.16585 30.3819 2.67801 30.6087C2.92559 30.7183 3.06167 30.8185 3.13065 30.9243C3.17884 30.998 3.19207 31.0708 3.19207 31.1435C3.19207 31.2116 3.17601 31.2749 3.14482 31.3344C3.056 31.5073 2.84622 31.6576 2.57407 31.8532C2.53627 31.8806 2.49658 31.909 2.45595 31.9392C1.83322 32.3918 1.36925 32.7481 1.0215 33.2262C0.986537 33.2744 0.970473 33.3264 0.970473 33.3765C0.970473 33.4322 0.988427 33.487 1.02056 33.5324C1.05268 33.5778 1.09899 33.6137 1.1519 33.6326C1.2001 33.6496 1.25396 33.6524 1.31255 33.6363C1.90504 33.4681 2.45878 33.2886 2.50981 33.2716C2.5117 33.2716 2.51359 33.2706 2.51454 33.2697C3.62959 32.9267 4.40634 32.749 4.90623 32.8104C5.0527 32.8284 5.17743 32.8671 5.28138 32.9305C5.35603 32.9758 5.41745 33.0448 5.46753 33.1308C5.69432 33.5107 5.74913 34.2647 5.78126 34.9168C5.78409 34.9753 5.80394 35.0245 5.83323 35.0642C5.86536 35.1076 5.91166 35.1388 5.96175 35.1558C6.01183 35.1728 6.06758 35.1757 6.11956 35.1615C6.1668 35.1483 6.21216 35.1209 6.24996 35.0765C6.5429 34.7315 6.80749 34.3706 7.06073 34.0266C7.57952 33.3207 8.05389 32.6725 8.61236 32.3899Z" fill="white"/>
<path d="M9.6199 51.6982C8.7203 51.6982 7.61376 51.925 6.75195 52.5298C7.4087 52.6621 8.11364 53.0826 8.89795 53.557C9.47438 53.9142 10.0508 54.2714 10.631 54.6304C11.4531 55.1398 12.4992 55.3902 13.4442 55.3902C14.6376 55.3902 15.5845 55.0009 16.073 54.7127C14.854 53.9576 13.6511 53.213 12.433 52.458C11.6109 51.9487 10.5649 51.6982 9.6199 51.6982Z" fill="white"/>
</g>
</svg>
